<svg width="123" height="63" viewBox="0 0 123 63" fill="none" xmlns="http://www.w3.org/2000/svg">
<path d="M4.49432 11H0.884943V0.818182H4.52415C5.5483 0.818182 6.42992 1.02202 7.16903 1.42969C7.90814 1.83404 8.47656 2.41572 8.87429 3.17472C9.27533 3.93371 9.47585 4.84186 9.47585 5.89915C9.47585 6.95975 9.27533 7.87121 8.87429 8.63352C8.47656 9.39583 7.90483 9.98082 7.15909 10.3885C6.41667 10.7962 5.52841 11 4.49432 11ZM3.03764 9.15554H4.40483C5.04119 9.15554 5.57647 9.04285 6.01065 8.81747C6.44815 8.58878 6.77628 8.2358 6.99503 7.75852C7.21709 7.27794 7.32812 6.65814 7.32812 5.89915C7.32812 5.14678 7.21709 4.53196 6.99503 4.05469C6.77628 3.57741 6.44981 3.22609 6.01562 3.00071C5.58144 2.77533 5.04616 2.66264 4.4098 2.66264H3.03764V9.15554ZM14.5108 11.1491C13.7253 11.1491 13.0492 10.9901 12.4824 10.6719C11.919 10.3504 11.4848 9.89631 11.1799 9.30966C10.8749 8.7197 10.7225 8.02202 10.7225 7.21662C10.7225 6.43111 10.8749 5.74171 11.1799 5.14844C11.4848 4.55516 11.914 4.0928 12.4675 3.76136C13.0243 3.42992 13.6773 3.2642 14.4263 3.2642C14.9301 3.2642 15.3991 3.34541 15.8333 3.50781C16.2708 3.6669 16.6519 3.9072 16.9767 4.22869C17.3049 4.55019 17.5601 4.95455 17.7424 5.44176C17.9247 5.92566 18.0158 6.49242 18.0158 7.14205V7.72372H11.5676V6.41122H16.0222C16.0222 6.1063 15.9559 5.83617 15.8233 5.60085C15.6908 5.36553 15.5068 5.18158 15.2715 5.04901C15.0395 4.91312 14.7694 4.84517 14.4611 4.84517C14.1396 4.84517 13.8546 4.91974 13.606 5.06889C13.3607 5.21473 13.1685 5.41193 13.0293 5.66051C12.8901 5.90578 12.8188 6.17921 12.8155 6.48082V7.72869C12.8155 8.10653 12.8851 8.433 13.0243 8.7081C13.1668 8.98319 13.3674 9.19531 13.6259 9.34446C13.8844 9.49361 14.191 9.56818 14.5456 9.56818C14.781 9.56818 14.9964 9.53504 15.1919 9.46875C15.3875 9.40246 15.5549 9.30303 15.6941 9.17045C15.8333 9.03788 15.9393 8.87547 16.0123 8.68324L17.9711 8.8125C17.8716 9.28314 17.6678 9.69413 17.3596 10.0455C17.0546 10.3935 16.6602 10.6652 16.1763 10.8608C15.6957 11.053 15.1406 11.1491 14.5108 11.1491ZM19.3979 13.8636V3.36364H21.486V4.64631H21.5804C21.6732 4.44081 21.8075 4.23201 21.9831 4.01989C22.1621 3.80445 22.3941 3.62547 22.6792 3.48295C22.9675 3.33712 23.3255 3.2642 23.753 3.2642C24.3098 3.2642 24.8236 3.41004 25.2942 3.7017C25.7649 3.99006 26.141 4.4259 26.4228 5.00923C26.7045 5.58925 26.8453 6.31676 26.8453 7.19176C26.8453 8.04356 26.7078 8.76278 26.4327 9.34943C26.1609 9.93277 25.7897 10.3752 25.3191 10.6768C24.8517 10.9751 24.3281 11.1243 23.748 11.1243C23.3371 11.1243 22.9874 11.0563 22.699 10.9205C22.414 10.7846 22.1803 10.6139 21.998 10.4084C21.8158 10.1996 21.6766 9.98911 21.5804 9.77699H21.5158V13.8636H19.3979ZM21.4711 7.18182C21.4711 7.63589 21.534 8.03196 21.66 8.37003C21.7859 8.7081 21.9682 8.97159 22.2069 9.16051C22.4455 9.34612 22.7355 9.43892 23.0769 9.43892C23.4216 9.43892 23.7132 9.34446 23.9519 9.15554C24.1905 8.9633 24.3712 8.69815 24.4938 8.36009C24.6197 8.0187 24.6827 7.62595 24.6827 7.18182C24.6827 6.741 24.6214 6.35322 24.4988 6.01847C24.3761 5.68371 24.1955 5.42187 23.9569 5.23295C23.7182 5.04403 23.4249 4.94957 23.0769 4.94957C22.7322 4.94957 22.4405 5.04072 22.2019 5.22301C21.9666 5.4053 21.7859 5.66383 21.66 5.99858C21.534 6.33333 21.4711 6.72775 21.4711 7.18182ZM30.4348 11.1442C29.9476 11.1442 29.5134 11.0597 29.1323 10.8906C28.7511 10.7183 28.4495 10.4647 28.2275 10.13C28.0087 9.7919 27.8993 9.37098 27.8993 8.86719C27.8993 8.44295 27.9772 8.08665 28.133 7.7983C28.2888 7.50994 28.5009 7.27794 28.7694 7.10227C29.0378 6.92661 29.3427 6.79403 29.6841 6.70455C30.0288 6.61506 30.3901 6.55208 30.7679 6.51562C31.2121 6.46922 31.57 6.42614 31.8418 6.38636C32.1136 6.34328 32.3108 6.2803 32.4334 6.19744C32.556 6.11458 32.6174 5.99195 32.6174 5.82955V5.79972C32.6174 5.48485 32.5179 5.24124 32.3191 5.06889C32.1235 4.89654 31.8451 4.81037 31.4838 4.81037C31.1027 4.81037 30.7994 4.89489 30.574 5.06392C30.3487 5.22964 30.1995 5.43845 30.1266 5.69034L28.1678 5.53125C28.2672 5.06723 28.4628 4.66619 28.7544 4.32812C29.0461 3.98674 29.4223 3.7249 29.883 3.54261C30.347 3.35701 30.8839 3.2642 31.4938 3.2642C31.918 3.2642 32.324 3.31392 32.7118 3.41335C33.1029 3.51278 33.4493 3.6669 33.7509 3.87571C34.0558 4.08452 34.2961 4.35298 34.4718 4.68111C34.6474 5.00592 34.7353 5.39536 34.7353 5.84943V11H32.7267V9.94105H32.6671C32.5444 10.1797 32.3804 10.3902 32.1749 10.5724C31.9694 10.7514 31.7225 10.8923 31.4341 10.995C31.1458 11.0945 30.8127 11.1442 30.4348 11.1442ZM31.0414 9.68253C31.3529 9.68253 31.628 9.62121 31.8667 9.49858C32.1053 9.37263 32.2926 9.2036 32.4284 8.99148C32.5643 8.77936 32.6323 8.53906 32.6323 8.2706V7.46023C32.566 7.50331 32.4748 7.54309 32.3588 7.57955C32.2462 7.61269 32.1185 7.64418 31.976 7.67401C31.8335 7.70052 31.691 7.72538 31.5485 7.74858C31.406 7.76847 31.2767 7.78669 31.1607 7.80327C30.9121 7.83973 30.695 7.89773 30.5094 7.97727C30.3238 8.05682 30.1796 8.16454 30.0769 8.30043C29.9741 8.433 29.9228 8.59872 29.9228 8.79759C29.9228 9.08594 30.0272 9.30634 30.236 9.45881C30.4481 9.60795 30.7166 9.68253 31.0414 9.68253ZM36.3784 11V3.36364H38.4316V4.69602H38.5112C38.6504 4.22206 38.8841 3.86411 39.2122 3.62216C39.5403 3.37689 39.9181 3.25426 40.3457 3.25426C40.4518 3.25426 40.5661 3.26089 40.6887 3.27415C40.8114 3.28741 40.9191 3.30563 41.0119 3.32883V5.2081C40.9125 5.17827 40.7749 5.15175 40.5993 5.12855C40.4236 5.10535 40.2628 5.09375 40.117 5.09375C39.8055 5.09375 39.527 5.1617 39.2818 5.29759C39.0398 5.43016 38.8476 5.61577 38.7051 5.8544C38.5659 6.09304 38.4963 6.36813 38.4963 6.67969V11H36.3784ZM46.5515 3.36364V4.95455H41.9528V3.36364H46.5515ZM42.9968 1.53409H45.1147V8.65341C45.1147 8.84896 45.1445 9.00142 45.2042 9.1108C45.2638 9.21686 45.3467 9.29143 45.4528 9.33452C45.5621 9.3776 45.6881 9.39915 45.8306 9.39915C45.93 9.39915 46.0295 9.39086 46.1289 9.37429C46.2283 9.3544 46.3046 9.33949 46.3576 9.32955L46.6907 10.9055C46.5846 10.9387 46.4355 10.9768 46.2433 11.0199C46.051 11.0663 45.8174 11.0945 45.5423 11.1044C45.0318 11.1243 44.5844 11.0563 44.1999 10.9006C43.8188 10.7448 43.5221 10.5028 43.31 10.1747C43.0979 9.84659 42.9935 9.43229 42.9968 8.93182V1.53409ZM47.9311 11V3.36364H49.9496V4.71094H50.0391C50.1982 4.26349 50.4633 3.91051 50.8345 3.65199C51.2057 3.39347 51.6499 3.2642 52.1669 3.2642C52.6906 3.2642 53.1364 3.39512 53.5043 3.65696C53.8722 3.91548 54.1174 4.26681 54.2401 4.71094H54.3196C54.4754 4.27344 54.7571 3.92377 55.1648 3.66193C55.5758 3.39678 56.0613 3.2642 56.6214 3.2642C57.334 3.2642 57.9124 3.49124 58.3565 3.94531C58.804 4.39607 59.0277 5.03575 59.0277 5.86435V11H56.9148V6.28196C56.9148 5.85772 56.8021 5.53954 56.5767 5.32741C56.3513 5.11529 56.0696 5.00923 55.7315 5.00923C55.3471 5.00923 55.0471 5.13187 54.8317 5.37713C54.6162 5.61908 54.5085 5.93892 54.5085 6.33665V11H52.4553V6.23722C52.4553 5.86269 52.3475 5.56439 52.1321 5.34233C51.92 5.12026 51.6399 5.00923 51.2919 5.00923C51.0566 5.00923 50.8445 5.06889 50.6555 5.18821C50.4699 5.30421 50.3224 5.46828 50.2131 5.6804C50.1037 5.8892 50.049 6.13447 50.049 6.41619V11H47.9311ZM64.1808 11.1491C63.3952 11.1491 62.7191 10.9901 62.1523 10.6719C61.5889 10.3504 61.1547 9.89631 60.8498 9.30966C60.5449 8.7197 60.3924 8.02202 60.3924 7.21662C60.3924 6.43111 60.5449 5.74171 60.8498 5.14844C61.1547 4.55516 61.5839 4.0928 62.1374 3.76136C62.6942 3.42992 63.3472 3.2642 64.0962 3.2642C64.6 3.2642 65.069 3.34541 65.5032 3.50781C65.9407 3.6669 66.3219 3.9072 66.6467 4.22869C66.9748 4.55019 67.23 4.95455 67.4123 5.44176C67.5946 5.92566 67.6857 6.49242 67.6857 7.14205V7.72372H61.2376V6.41122H65.6921C65.6921 6.1063 65.6258 5.83617 65.4933 5.60085C65.3607 5.36553 65.1767 5.18158 64.9414 5.04901C64.7094 4.91312 64.4393 4.84517 64.131 4.84517C63.8095 4.84517 63.5245 4.91974 63.2759 5.06889C63.0307 5.21473 62.8384 5.41193 62.6992 5.66051C62.56 5.90578 62.4888 6.17921 62.4854 6.48082V7.72869C62.4854 8.10653 62.555 8.433 62.6942 8.7081C62.8368 8.98319 63.0373 9.19531 63.2958 9.34446C63.5543 9.49361 63.8609 9.56818 64.2156 9.56818C64.4509 9.56818 64.6663 9.53504 64.8619 9.46875C65.0574 9.40246 65.2248 9.30303 65.364 9.17045C65.5032 9.03788 65.6093 8.87547 65.6822 8.68324L67.641 8.8125C67.5415 9.28314 67.3377 9.69413 67.0295 10.0455C66.7246 10.3935 66.3301 10.6652 65.8462 10.8608C65.3656 11.053 64.8105 11.1491 64.1808 11.1491ZM71.1857 6.58523V11H69.0678V3.36364H71.0863V4.71094H71.1758C71.3448 4.26681 71.6282 3.91548 72.0259 3.65696C72.4237 3.39512 72.9059 3.2642 73.4727 3.2642C74.003 3.2642 74.4653 3.38021 74.8597 3.61222C75.2541 3.84422 75.5607 4.17566 75.7795 4.60653C75.9982 5.03409 76.1076 5.54451 76.1076 6.13778V11H73.9897V6.51562C73.993 6.0483 73.8737 5.68371 73.6317 5.42188C73.3898 5.15672 73.0567 5.02415 72.6325 5.02415C72.3474 5.02415 72.0955 5.08546 71.8768 5.2081C71.6613 5.33073 71.4923 5.50971 71.3697 5.74503C71.2504 5.97704 71.189 6.2571 71.1857 6.58523ZM81.8386 3.36364V4.95455H77.2399V3.36364H81.8386ZM78.2839 1.53409H80.4018V8.65341C80.4018 8.84896 80.4316 9.00142 80.4913 9.1108C80.551 9.21686 80.6338 9.29143 80.7399 9.33452C80.8493 9.3776 80.9752 9.39915 81.1177 9.39915C81.2172 9.39915 81.3166 9.39086 81.416 9.37429C81.5154 9.3544 81.5917 9.33949 81.6447 9.32955L81.9778 10.9055C81.8717 10.9387 81.7226 10.9768 81.5304 11.0199C81.3381 11.0663 81.1045 11.0945 80.8294 11.1044C80.319 11.1243 79.8715 11.0563 79.487 10.9006C79.1059 10.7448 78.8092 10.5028 78.5971 10.1747C78.385 9.84659 78.2806 9.43229 78.2839 8.93182V1.53409ZM89.9087 11.1491C89.1365 11.1491 88.4686 10.9851 87.9052 10.657C87.3451 10.3255 86.9125 9.86482 86.6076 9.27486C86.3027 8.68158 86.1502 7.99384 86.1502 7.21165C86.1502 6.42282 86.3027 5.73343 86.6076 5.14347C86.9125 4.55019 87.3451 4.08949 87.9052 3.76136C88.4686 3.42992 89.1365 3.2642 89.9087 3.2642C90.681 3.2642 91.3472 3.42992 91.9073 3.76136C92.4708 4.08949 92.9049 4.55019 93.2099 5.14347C93.5148 5.73343 93.6673 6.42282 93.6673 7.21165C93.6673 7.99384 93.5148 8.68158 93.2099 9.27486C92.9049 9.86482 92.4708 10.3255 91.9073 10.657C91.3472 10.9851 90.681 11.1491 89.9087 11.1491ZM89.9187 9.50852C90.27 9.50852 90.5633 9.40909 90.7987 9.21023C91.034 9.00805 91.2113 8.73295 91.3306 8.38494C91.4532 8.03693 91.5146 7.64086 91.5146 7.19673C91.5146 6.7526 91.4532 6.35653 91.3306 6.00852C91.2113 5.66051 91.034 5.38542 90.7987 5.18324C90.5633 4.98106 90.27 4.87997 89.9187 4.87997C89.564 4.87997 89.2657 4.98106 89.0238 5.18324C88.7852 5.38542 88.6045 5.66051 88.4819 6.00852C88.3626 6.35653 88.3029 6.7526 88.3029 7.19673C88.3029 7.64086 88.3626 8.03693 88.4819 8.38494C88.6045 8.73295 88.7852 9.00805 89.0238 9.21023C89.2657 9.40909 89.564 9.50852 89.9187 9.50852ZM99.1509 3.36364V4.95455H94.4379V3.36364H99.1509ZM95.5167 11V2.81179C95.5167 2.25829 95.6244 1.79924 95.8398 1.43466C96.0586 1.07008 96.3569 0.796638 96.7347 0.614346C97.1126 0.432054 97.5418 0.340908 98.0224 0.340908C98.3472 0.340908 98.6438 0.365767 98.9123 0.415483C99.1841 0.465199 99.3862 0.509943 99.5188 0.549716L99.141 2.14062C99.0581 2.11411 98.9554 2.08925 98.8327 2.06605C98.7134 2.04285 98.5908 2.03125 98.4648 2.03125C98.1533 2.03125 97.9362 2.10417 97.8136 2.25C97.6909 2.39252 97.6296 2.59304 97.6296 2.85156V11H95.5167ZM3.03764 17.8182V28H0.884943V17.8182H3.03764ZM6.8869 23.5852V28H4.769V20.3636H6.78746V21.7109H6.87695C7.04599 21.2668 7.32937 20.9155 7.7271 20.657C8.12482 20.3951 8.60707 20.2642 9.17383 20.2642C9.70413 20.2642 10.1665 20.3802 10.5609 20.6122C10.9553 20.8442 11.2619 21.1757 11.4806 21.6065C11.6994 22.0341 11.8088 22.5445 11.8088 23.1378V28H9.69087V23.5156C9.69419 23.0483 9.57487 22.6837 9.33292 22.4219C9.09097 22.1567 8.75787 22.0241 8.33363 22.0241C8.04859 22.0241 7.7967 22.0855 7.57795 22.2081C7.36251 22.3307 7.19348 22.5097 7.07085 22.745C6.95153 22.977 6.89021 23.2571 6.8869 23.5852ZM17.5398 20.3636V21.9545H12.9411V20.3636H17.5398ZM13.9851 18.5341H16.103V25.6534C16.103 25.849 16.1328 26.0014 16.1925 26.1108C16.2521 26.2169 16.335 26.2914 16.4411 26.3345C16.5504 26.3776 16.6764 26.3991 16.8189 26.3991C16.9183 26.3991 17.0178 26.3909 17.1172 26.3743C17.2166 26.3544 17.2929 26.3395 17.3459 26.3295L17.679 27.9055C17.5729 27.9387 17.4238 27.9768 17.2315 28.0199C17.0393 28.0663 16.8056 28.0945 16.5305 28.1044C16.0201 28.1243 15.5727 28.0563 15.1882 27.9006C14.8071 27.7448 14.5104 27.5028 14.2983 27.1747C14.0862 26.8466 13.9818 26.4323 13.9851 25.9318V18.5341ZM22.3175 28.1491C21.532 28.1491 20.8558 27.9901 20.2891 27.6719C19.7256 27.3504 19.2914 26.8963 18.9865 26.3097C18.6816 25.7197 18.5291 25.022 18.5291 24.2166C18.5291 23.4311 18.6816 22.7417 18.9865 22.1484C19.2914 21.5552 19.7206 21.0928 20.2741 20.7614C20.831 20.4299 21.4839 20.2642 22.233 20.2642C22.7367 20.2642 23.2057 20.3454 23.6399 20.5078C24.0774 20.6669 24.4586 20.9072 24.7834 21.2287C25.1115 21.5502 25.3667 21.9545 25.549 22.4418C25.7313 22.9257 25.8224 23.4924 25.8224 24.142V24.7237H19.3743V23.4112H23.8288C23.8288 23.1063 23.7625 22.8362 23.63 22.6009C23.4974 22.3655 23.3134 22.1816 23.0781 22.049C22.8461 21.9131 22.576 21.8452 22.2678 21.8452C21.9463 21.8452 21.6612 21.9197 21.4126 22.0689C21.1674 22.2147 20.9751 22.4119 20.8359 22.6605C20.6967 22.9058 20.6255 23.1792 20.6222 23.4808V24.7287C20.6222 25.1065 20.6918 25.433 20.831 25.7081C20.9735 25.9832 21.174 26.1953 21.4325 26.3445C21.6911 26.4936 21.9976 26.5682 22.3523 26.5682C22.5876 26.5682 22.803 26.535 22.9986 26.4688C23.1941 26.4025 23.3615 26.303 23.5007 26.1705C23.6399 26.0379 23.746 25.8755 23.8189 25.6832L25.7777 25.8125C25.6783 26.2831 25.4744 26.6941 25.1662 27.0455C24.8613 27.3935 24.4669 27.6652 23.983 27.8608C23.5024 28.053 22.9472 28.1491 22.3175 28.1491ZM29.3224 17.8182V28H27.2045V17.8182H29.3224ZM33.1369 17.8182V28H31.019V17.8182H33.1369ZM34.8335 28V20.3636H36.9513V28H34.8335ZM35.8974 19.3793C35.5825 19.3793 35.3124 19.2749 35.087 19.0661C34.8649 18.8539 34.7539 18.6004 34.7539 18.3054C34.7539 18.0137 34.8649 17.7635 35.087 17.5547C35.3124 17.3426 35.5825 17.2365 35.8974 17.2365C36.2122 17.2365 36.4807 17.3426 36.7028 17.5547C36.9281 17.7635 37.0408 18.0137 37.0408 18.3054C37.0408 18.6004 36.9281 18.8539 36.7028 19.0661C36.4807 19.2749 36.2122 19.3793 35.8974 19.3793ZM42.0882 31.0227C41.4022 31.0227 40.8139 30.9283 40.3233 30.7393C39.8361 30.5537 39.4483 30.3002 39.16 29.9787C38.8716 29.6572 38.6844 29.2959 38.5982 28.8949L40.557 28.6314C40.6167 28.7839 40.7111 28.9264 40.8404 29.0589C40.9696 29.1915 41.1403 29.2976 41.3525 29.3771C41.5679 29.46 41.8297 29.5014 42.138 29.5014C42.5987 29.5014 42.9782 29.3887 43.2765 29.1634C43.5781 28.9413 43.7289 28.5684 43.7289 28.0447V26.6477H43.6394C43.5466 26.8598 43.4074 27.0604 43.2218 27.2493C43.0362 27.4382 42.7975 27.5923 42.5059 27.7116C42.2142 27.831 41.8662 27.8906 41.4618 27.8906C40.8884 27.8906 40.3664 27.758 39.8958 27.4929C39.4284 27.2244 39.0556 26.8151 38.7772 26.2649C38.5021 25.7114 38.3645 25.0121 38.3645 24.1669C38.3645 23.3018 38.5054 22.5793 38.7871 21.9993C39.0688 21.4193 39.4434 20.9851 39.9107 20.6967C40.3813 20.4084 40.8967 20.2642 41.4569 20.2642C41.8844 20.2642 42.2424 20.3371 42.5307 20.483C42.8191 20.6255 43.0511 20.8045 43.2267 21.0199C43.4057 21.232 43.5433 21.4408 43.6394 21.6463H43.7189V20.3636H45.8219V28.0746C45.8219 28.7242 45.6628 29.2678 45.3446 29.7053C45.0265 30.1428 44.5856 30.4709 44.0222 30.6896C43.4621 30.9117 42.8174 31.0227 42.0882 31.0227ZM42.133 26.2997C42.4744 26.2997 42.7627 26.2152 42.998 26.0462C43.2367 25.8738 43.419 25.6286 43.5449 25.3104C43.6742 24.9889 43.7388 24.6044 43.7388 24.157C43.7388 23.7095 43.6758 23.3217 43.5499 22.9936C43.4239 22.6622 43.2417 22.4053 43.003 22.223C42.7644 22.0407 42.4744 21.9496 42.133 21.9496C41.785 21.9496 41.4917 22.044 41.253 22.233C41.0144 22.4186 40.8337 22.6771 40.7111 23.0085C40.5885 23.34 40.5272 23.7228 40.5272 24.157C40.5272 24.5978 40.5885 24.9789 40.7111 25.3004C40.8371 25.6186 41.0177 25.8655 41.253 26.0412C41.4917 26.2135 41.785 26.2997 42.133 26.2997ZM50.9874 28.1491C50.2019 28.1491 49.5257 27.9901 48.959 27.6719C48.3955 27.3504 47.9614 26.8963 47.6564 26.3097C47.3515 25.7197 47.199 25.022 47.199 24.2166C47.199 23.4311 47.3515 22.7417 47.6564 22.1484C47.9614 21.5552 48.3906 21.0928 48.9441 20.7614C49.5009 20.4299 50.1538 20.2642 50.9029 20.2642C51.4067 20.2642 51.8757 20.3454 52.3098 20.5078C52.7473 20.6669 53.1285 20.9072 53.4533 21.2287C53.7814 21.5502 54.0366 21.9545 54.2189 22.4418C54.4012 22.9257 54.4924 23.4924 54.4924 24.142V24.7237H48.0442V23.4112H52.4988C52.4988 23.1063 52.4325 22.8362 52.2999 22.6009C52.1673 22.3655 51.9834 22.1816 51.748 22.049C51.516 21.9131 51.2459 21.8452 50.9377 21.8452C50.6162 21.8452 50.3311 21.9197 50.0826 22.0689C49.8373 22.2147 49.6451 22.4119 49.5059 22.6605C49.3667 22.9058 49.2954 23.1792 49.2921 23.4808V24.7287C49.2921 25.1065 49.3617 25.433 49.5009 25.7081C49.6434 25.9832 49.8439 26.1953 50.1025 26.3445C50.361 26.4936 50.6676 26.5682 51.0222 26.5682C51.2575 26.5682 51.473 26.535 51.6685 26.4688C51.8641 26.4025 52.0314 26.303 52.1706 26.1705C52.3098 26.0379 52.4159 25.8755 52.4888 25.6832L54.4476 25.8125C54.3482 26.2831 54.1444 26.6941 53.8361 27.0455C53.5312 27.3935 53.1368 27.6652 52.6529 27.8608C52.1723 28.053 51.6171 28.1491 50.9874 28.1491ZM57.9924 23.5852V28H55.8745V20.3636H57.8929V21.7109H57.9824C58.1515 21.2668 58.4348 20.9155 58.8326 20.657C59.2303 20.3951 59.7125 20.2642 60.2793 20.2642C60.8096 20.2642 61.272 20.3802 61.6664 20.6122C62.0608 20.8442 62.3674 21.1757 62.5861 21.6065C62.8049 22.0341 62.9142 22.5445 62.9142 23.1378V28H60.7963V23.5156C60.7997 23.0483 60.6803 22.6837 60.4384 22.4219C60.1964 22.1567 59.8633 22.0241 59.4391 22.0241C59.1541 22.0241 58.9022 22.0855 58.6834 22.2081C58.468 22.3307 58.2989 22.5097 58.1763 22.745C58.057 22.977 57.9957 23.2571 57.9924 23.5852ZM68.6452 20.3636V21.9545H64.0465V20.3636H68.6452ZM65.0906 18.5341H67.2085V25.6534C67.2085 25.849 67.2383 26.0014 67.2979 26.1108C67.3576 26.2169 67.4405 26.2914 67.5465 26.3345C67.6559 26.3776 67.7818 26.3991 67.9244 26.3991C68.0238 26.3991 68.1232 26.3909 68.2227 26.3743C68.3221 26.3544 68.3983 26.3395 68.4513 26.3295L68.7844 27.9055C68.6784 27.9387 68.5292 27.9768 68.337 28.0199C68.1448 28.0663 67.9111 28.0945 67.636 28.1044C67.1256 28.1243 66.6781 28.0563 66.2937 27.9006C65.9125 27.7448 65.6159 27.5028 65.4038 27.1747C65.1916 26.8466 65.0872 26.4323 65.0906 25.9318V18.5341ZM0.884943 34.8182H3.53977L6.34375 41.6591H6.46307L9.26705 34.8182H11.9219V45H9.83381V38.3729H9.74929L7.11435 44.9503H5.69247L3.05753 38.348H2.97301V45H0.884943V34.8182ZM17.1358 45.1491C16.3503 45.1491 15.6742 44.9901 15.1074 44.6719C14.544 44.3504 14.1098 43.8963 13.8049 43.3097C13.4999 42.7197 13.3475 42.022 13.3475 41.2166C13.3475 40.4311 13.4999 39.7417 13.8049 39.1484C14.1098 38.5552 14.539 38.0928 15.0925 37.7614C15.6493 37.4299 16.3023 37.2642 17.0513 37.2642C17.5551 37.2642 18.0241 37.3454 18.4583 37.5078C18.8958 37.6669 19.2769 37.9072 19.6017 38.2287C19.9299 38.5502 20.1851 38.9545 20.3674 39.4418C20.5497 39.9257 20.6408 40.4924 20.6408 41.142V41.7237H14.1926V40.4112H18.6472C18.6472 40.1063 18.5809 39.8362 18.4483 39.6009C18.3158 39.3655 18.1318 39.1816 17.8965 39.049C17.6645 38.9131 17.3944 38.8452 17.0861 38.8452C16.7646 38.8452 16.4796 38.9197 16.231 39.0689C15.9857 39.2147 15.7935 39.4119 15.6543 39.6605C15.5151 39.9058 15.4438 40.1792 15.4405 40.4808V41.7287C15.4405 42.1065 15.5101 42.433 15.6493 42.7081C15.7918 42.9832 15.9924 43.1953 16.2509 43.3445C16.5094 43.4936 16.816 43.5682 17.1706 43.5682C17.406 43.5682 17.6214 43.535 17.8169 43.4688C18.0125 43.4025 18.1799 43.303 18.3191 43.1705C18.4583 43.0379 18.5643 42.8755 18.6373 42.6832L20.5961 42.8125C20.4966 43.2831 20.2928 43.6941 19.9846 44.0455C19.6796 44.3935 19.2852 44.6652 18.8013 44.8608C18.3207 45.053 17.7656 45.1491 17.1358 45.1491ZM25.4732 45.1491C24.691 45.1491 24.0182 44.9834 23.4547 44.652C22.8946 44.3172 22.4637 43.8532 22.1621 43.2599C21.8638 42.6667 21.7147 41.9839 21.7147 41.2116C21.7147 40.4295 21.8655 39.7434 22.1671 39.1534C22.472 38.5601 22.9045 38.0978 23.4647 37.7663C24.0248 37.4316 24.691 37.2642 25.4632 37.2642C26.1294 37.2642 26.7128 37.3852 27.2132 37.6271C27.7137 37.8691 28.1098 38.2088 28.4015 38.6463C28.6931 39.0838 28.8539 39.5975 28.8837 40.1875H26.8851C26.8288 39.8063 26.6796 39.4998 26.4377 39.2678C26.199 39.0324 25.8858 38.9148 25.498 38.9148C25.1699 38.9148 24.8832 39.0043 24.638 39.1832C24.396 39.3589 24.2071 39.6158 24.0712 39.9538C23.9353 40.2919 23.8674 40.7012 23.8674 41.1818C23.8674 41.669 23.9337 42.0833 24.0662 42.4247C24.2021 42.7661 24.3927 43.0263 24.638 43.2053C24.8832 43.3842 25.1699 43.4737 25.498 43.4737C25.74 43.4737 25.9571 43.424 26.1493 43.3246C26.3449 43.2251 26.5056 43.081 26.6316 42.892C26.7608 42.6998 26.8453 42.4695 26.8851 42.201H28.8837C28.8506 42.7843 28.6915 43.2981 28.4064 43.7422C28.1247 44.183 27.7353 44.5277 27.2381 44.7763C26.7409 45.0249 26.1526 45.1491 25.4732 45.1491ZM32.3576 40.5852V45H30.2397V34.8182H32.2979V38.7109H32.3874C32.5598 38.2602 32.8382 37.9072 33.2227 37.652C33.6071 37.3935 34.0894 37.2642 34.6694 37.2642C35.1997 37.2642 35.6621 37.3802 36.0565 37.6122C36.4542 37.8409 36.7624 38.1707 36.9812 38.6016C37.2032 39.0291 37.3126 39.5412 37.3093 40.1378V45H35.1914V40.5156C35.1947 40.045 35.0754 39.6787 34.8335 39.4169C34.5948 39.1551 34.2601 39.0241 33.8292 39.0241C33.5408 39.0241 33.2856 39.0855 33.0636 39.2081C32.8448 39.3307 32.6725 39.5097 32.5465 39.745C32.4239 39.977 32.3609 40.2571 32.3576 40.5852ZM41.1536 45.1442C40.6664 45.1442 40.2322 45.0597 39.851 44.8906C39.4699 44.7183 39.1683 44.4647 38.9462 44.13C38.7275 43.7919 38.6181 43.371 38.6181 42.8672C38.6181 42.4429 38.696 42.0866 38.8517 41.7983C39.0075 41.5099 39.2196 41.2779 39.4881 41.1023C39.7566 40.9266 40.0615 40.794 40.4029 40.7045C40.7476 40.6151 41.1088 40.5521 41.4867 40.5156C41.9308 40.4692 42.2888 40.4261 42.5605 40.3864C42.8323 40.3433 43.0295 40.2803 43.1522 40.1974C43.2748 40.1146 43.3361 39.992 43.3361 39.8295V39.7997C43.3361 39.4848 43.2367 39.2412 43.0378 39.0689C42.8423 38.8965 42.5639 38.8104 42.2026 38.8104C41.8214 38.8104 41.5182 38.8949 41.2928 39.0639C41.0674 39.2296 40.9183 39.4384 40.8453 39.6903L38.8865 39.5312C38.986 39.0672 39.1815 38.6662 39.4732 38.3281C39.7649 37.9867 40.141 37.7249 40.6017 37.5426C41.0658 37.357 41.6027 37.2642 42.2125 37.2642C42.6368 37.2642 43.0428 37.3139 43.4306 37.4134C43.8217 37.5128 44.168 37.6669 44.4696 37.8757C44.7746 38.0845 45.0149 38.353 45.1905 38.6811C45.3662 39.0059 45.454 39.3954 45.454 39.8494V45H43.4455V43.9411H43.3858C43.2632 44.1797 43.0991 44.3902 42.8936 44.5724C42.6882 44.7514 42.4412 44.8923 42.1529 44.995C41.8645 45.0945 41.5314 45.1442 41.1536 45.1442ZM41.7601 43.6825C42.0717 43.6825 42.3468 43.6212 42.5854 43.4986C42.824 43.3726 43.0113 43.2036 43.1472 42.9915C43.2831 42.7794 43.351 42.5391 43.351 42.2706V41.4602C43.2847 41.5033 43.1936 41.5431 43.0776 41.5795C42.9649 41.6127 42.8373 41.6442 42.6948 41.674C42.5523 41.7005 42.4097 41.7254 42.2672 41.7486C42.1247 41.7685 41.9954 41.7867 41.8794 41.8033C41.6309 41.8397 41.4138 41.8977 41.2282 41.9773C41.0426 42.0568 40.8984 42.1645 40.7956 42.3004C40.6929 42.433 40.6415 42.5987 40.6415 42.7976C40.6415 43.0859 40.7459 43.3063 40.9547 43.4588C41.1668 43.608 41.4353 43.6825 41.7601 43.6825ZM51.1589 37.3636V38.9545H46.5602V37.3636H51.1589ZM47.6042 35.5341H49.7221V42.6534C49.7221 42.849 49.752 43.0014 49.8116 43.1108C49.8713 43.2169 49.9541 43.2914 50.0602 43.3345C50.1696 43.3776 50.2955 43.3991 50.438 43.3991C50.5375 43.3991 50.6369 43.3909 50.7363 43.3743C50.8358 43.3544 50.912 43.3395 50.965 43.3295L51.2981 44.9055C51.1921 44.9387 51.0429 44.9768 50.8507 45.0199C50.6584 45.0663 50.4248 45.0945 50.1497 45.1044C49.6393 45.1243 49.1918 45.0563 48.8074 44.9006C48.4262 44.7448 48.1296 44.5028 47.9174 44.1747C47.7053 43.8466 47.6009 43.4323 47.6042 42.9318V35.5341ZM52.5385 45V37.3636H54.5918V38.696H54.6713C54.8105 38.2221 55.0442 37.8641 55.3723 37.6222C55.7005 37.3769 56.0783 37.2543 56.5059 37.2543C56.6119 37.2543 56.7263 37.2609 56.8489 37.2741C56.9715 37.2874 57.0792 37.3056 57.1721 37.3288V39.2081C57.0726 39.1783 56.9351 39.1518 56.7594 39.1286C56.5837 39.1054 56.423 39.0938 56.2772 39.0938C55.9656 39.0938 55.6872 39.1617 55.4419 39.2976C55.2 39.4302 55.0078 39.6158 54.8652 39.8544C54.726 40.093 54.6564 40.3681 54.6564 40.6797V45H52.5385ZM61.3619 45.1491C60.5896 45.1491 59.9218 44.9851 59.3583 44.657C58.7982 44.3255 58.3656 43.8648 58.0607 43.2749C57.7558 42.6816 57.6033 41.9938 57.6033 41.2116C57.6033 40.4228 57.7558 39.7334 58.0607 39.1435C58.3656 38.5502 58.7982 38.0895 59.3583 37.7614C59.9218 37.4299 60.5896 37.2642 61.3619 37.2642C62.1341 37.2642 62.8003 37.4299 63.3604 37.7614C63.9239 38.0895 64.3581 38.5502 64.663 39.1435C64.9679 39.7334 65.1204 40.4228 65.1204 41.2116C65.1204 41.9938 64.9679 42.6816 64.663 43.2749C64.3581 43.8648 63.9239 44.3255 63.3604 44.657C62.8003 44.9851 62.1341 45.1491 61.3619 45.1491ZM61.3718 43.5085C61.7231 43.5085 62.0165 43.4091 62.2518 43.2102C62.4871 43.008 62.6644 42.733 62.7837 42.3849C62.9064 42.0369 62.9677 41.6409 62.9677 41.1967C62.9677 40.7526 62.9064 40.3565 62.7837 40.0085C62.6644 39.6605 62.4871 39.3854 62.2518 39.1832C62.0165 38.9811 61.7231 38.88 61.3718 38.88C61.0172 38.88 60.7189 38.9811 60.4769 39.1832C60.2383 39.3854 60.0576 39.6605 59.935 40.0085C59.8157 40.3565 59.756 40.7526 59.756 41.1967C59.756 41.6409 59.8157 42.0369 59.935 42.3849C60.0576 42.733 60.2383 43.008 60.4769 43.2102C60.7189 43.4091 61.0172 43.5085 61.3718 43.5085ZM68.6154 40.5852V45H66.4975V37.3636H68.516V38.7109H68.6055C68.7745 38.2668 69.0579 37.9155 69.4556 37.657C69.8533 37.3951 70.3356 37.2642 70.9023 37.2642C71.4326 37.2642 71.895 37.3802 72.2894 37.6122C72.6838 37.8442 72.9904 38.1757 73.2092 38.6065C73.4279 39.0341 73.5373 39.5445 73.5373 40.1378V45H71.4194V40.5156C71.4227 40.0483 71.3034 39.6837 71.0614 39.4219C70.8195 39.1567 70.4864 39.0241 70.0621 39.0241C69.7771 39.0241 69.5252 39.0855 69.3065 39.2081C69.091 39.3307 68.922 39.5097 68.7994 39.745C68.68 39.977 68.6187 40.2571 68.6154 40.5852ZM75.2065 45V37.3636H77.3244V45H75.2065ZM76.2704 36.3793C75.9556 36.3793 75.6854 36.2749 75.46 36.0661C75.238 35.8539 75.127 35.6004 75.127 35.3054C75.127 35.0137 75.238 34.7635 75.46 34.5547C75.6854 34.3426 75.9556 34.2365 76.2704 34.2365C76.5853 34.2365 76.8538 34.3426 77.0758 34.5547C77.3012 34.7635 77.4139 35.0137 77.4139 35.3054C77.4139 35.6004 77.3012 35.8539 77.0758 36.0661C76.8538 36.2749 76.5853 36.3793 76.2704 36.3793ZM82.4712 45.1491C81.689 45.1491 81.0162 44.9834 80.4528 44.652C79.8926 44.3172 79.4618 43.8532 79.1602 43.2599C78.8619 42.6667 78.7127 41.9839 78.7127 41.2116C78.7127 40.4295 78.8635 39.7434 79.1651 39.1534C79.4701 38.5601 79.9026 38.0978 80.4627 37.7663C81.0228 37.4316 81.689 37.2642 82.4613 37.2642C83.1275 37.2642 83.7108 37.3852 84.2113 37.6271C84.7118 37.8691 85.1078 38.2088 85.3995 38.6463C85.6912 39.0838 85.8519 39.5975 85.8817 40.1875H83.8832C83.8268 39.8063 83.6777 39.4998 83.4357 39.2678C83.1971 39.0324 82.8839 38.9148 82.4961 38.9148C82.168 38.9148 81.8813 39.0043 81.636 39.1832C81.3941 39.3589 81.2051 39.6158 81.0692 39.9538C80.9334 40.2919 80.8654 40.7012 80.8654 41.1818C80.8654 41.669 80.9317 42.0833 81.0643 42.4247C81.2002 42.7661 81.3907 43.0263 81.636 43.2053C81.8813 43.3842 82.168 43.4737 82.4961 43.4737C82.738 43.4737 82.9551 43.424 83.1474 43.3246C83.3429 43.2251 83.5037 43.081 83.6296 42.892C83.7589 42.6998 83.8434 42.4695 83.8832 42.201H85.8817C85.8486 42.7843 85.6895 43.2981 85.4045 43.7422C85.1228 44.183 84.7333 44.5277 84.2362 44.7763C83.739 45.0249 83.1507 45.1491 82.4712 45.1491ZM93.5914 39.5412L91.6525 39.6605C91.6194 39.4948 91.5481 39.3456 91.4387 39.2131C91.3294 39.0772 91.1852 38.9695 91.0062 38.8899C90.8306 38.8071 90.6201 38.7656 90.3748 38.7656C90.0467 38.7656 89.7699 38.8352 89.5446 38.9744C89.3192 39.1103 89.2065 39.2926 89.2065 39.5213C89.2065 39.7036 89.2794 39.8577 89.4252 39.9837C89.5711 40.1096 89.8213 40.2107 90.176 40.2869L91.5581 40.5653C92.3005 40.7178 92.854 40.9631 93.2186 41.3011C93.5832 41.6392 93.7654 42.0833 93.7654 42.6335C93.7654 43.134 93.618 43.5732 93.323 43.951C93.0313 44.3288 92.6303 44.6238 92.1199 44.8359C91.6127 45.0447 91.0278 45.1491 90.3649 45.1491C89.354 45.1491 88.5486 44.9387 87.9487 44.5178C87.3521 44.0935 87.0024 43.5168 86.8997 42.7876L88.9828 42.6783C89.0458 42.9865 89.1982 43.2218 89.4402 43.3842C89.6821 43.5433 89.992 43.6229 90.3699 43.6229C90.7411 43.6229 91.0394 43.5516 91.2647 43.4091C91.4934 43.2633 91.6094 43.076 91.6127 42.8473C91.6094 42.6551 91.5282 42.4976 91.3691 42.375C91.21 42.2491 90.9648 42.1529 90.6333 42.0866L89.3109 41.8232C88.5652 41.674 88.01 41.4155 87.6454 41.0476C87.2842 40.6797 87.1035 40.2107 87.1035 39.6406C87.1035 39.1501 87.2361 38.7275 87.5012 38.3729C87.7697 38.0182 88.1459 37.7448 88.6298 37.5526C89.117 37.3603 89.6871 37.2642 90.34 37.2642C91.3045 37.2642 92.0635 37.468 92.617 37.8757C93.1738 38.2834 93.4986 38.8385 93.5914 39.5412ZM100.517 45.1442C100.03 45.1442 99.5955 45.0597 99.2143 44.8906C98.8332 44.7183 98.5315 44.4647 98.3095 44.13C98.0907 43.7919 97.9814 43.371 97.9814 42.8672C97.9814 42.4429 98.0592 42.0866 98.215 41.7983C98.3708 41.5099 98.5829 41.2779 98.8514 41.1023C99.1199 40.9266 99.4248 40.794 99.7662 40.7045C100.111 40.6151 100.472 40.5521 100.85 40.5156C101.294 40.4692 101.652 40.4261 101.924 40.3864C102.196 40.3433 102.393 40.2803 102.515 40.1974C102.638 40.1146 102.699 39.992 102.699 39.8295V39.7997C102.699 39.4848 102.6 39.2412 102.401 39.0689C102.206 38.8965 101.927 38.8104 101.566 38.8104C101.185 38.8104 100.881 38.8949 100.656 39.0639C100.431 39.2296 100.282 39.4384 100.209 39.6903L98.2498 39.5312C98.3493 39.0672 98.5448 38.6662 98.8365 38.3281C99.1281 37.9867 99.5043 37.7249 99.965 37.5426C100.429 37.357 100.966 37.2642 101.576 37.2642C102 37.2642 102.406 37.3139 102.794 37.4134C103.185 37.5128 103.531 37.6669 103.833 37.8757C104.138 38.0845 104.378 38.353 104.554 38.6811C104.729 39.0059 104.817 39.3954 104.817 39.8494V45H102.809V43.9411H102.749C102.626 44.1797 102.462 44.3902 102.257 44.5724C102.051 44.7514 101.805 44.8923 101.516 44.995C101.228 45.0945 100.895 45.1442 100.517 45.1442ZM101.123 43.6825C101.435 43.6825 101.71 43.6212 101.949 43.4986C102.187 43.3726 102.375 43.2036 102.51 42.9915C102.646 42.7794 102.714 42.5391 102.714 42.2706V41.4602C102.648 41.5033 102.557 41.5431 102.441 41.5795C102.328 41.6127 102.201 41.6442 102.058 41.674C101.916 41.7005 101.773 41.7254 101.631 41.7486C101.488 41.7685 101.359 41.7867 101.243 41.8033C100.994 41.8397 100.777 41.8977 100.591 41.9773C100.406 42.0568 100.262 42.1645 100.159 42.3004C100.056 42.433 100.005 42.5987 100.005 42.7976C100.005 43.0859 100.109 43.3063 100.318 43.4588C100.53 43.608 100.799 43.6825 101.123 43.6825ZM108.578 40.5852V45H106.46V37.3636H108.479V38.7109H108.568C108.737 38.2668 109.021 37.9155 109.419 37.657C109.816 37.3951 110.298 37.2642 110.865 37.2642C111.396 37.2642 111.858 37.3802 112.252 37.6122C112.647 37.8442 112.953 38.1757 113.172 38.6065C113.391 39.0341 113.5 39.5445 113.5 40.1378V45H111.382V40.5156C111.386 40.0483 111.266 39.6837 111.024 39.4219C110.782 39.1567 110.449 39.0241 110.025 39.0241C109.74 39.0241 109.488 39.0855 109.269 39.2081C109.054 39.3307 108.885 39.5097 108.762 39.745C108.643 39.977 108.582 40.2571 108.578 40.5852ZM117.983 45.1243C117.403 45.1243 116.878 44.9751 116.407 44.6768C115.94 44.3752 115.569 43.9328 115.294 43.3494C115.022 42.7628 114.886 42.0436 114.886 41.1918C114.886 40.3168 115.027 39.5893 115.309 39.0092C115.59 38.4259 115.965 37.9901 116.432 37.7017C116.903 37.41 117.418 37.2642 117.978 37.2642C118.406 37.2642 118.762 37.3371 119.047 37.483C119.336 37.6255 119.568 37.8045 119.743 38.0199C119.922 38.232 120.058 38.4408 120.151 38.6463H120.216V34.8182H122.328V45H120.24V43.777H120.151C120.051 43.9891 119.911 44.1996 119.728 44.4084C119.549 44.6139 119.316 44.7846 119.027 44.9205C118.742 45.0563 118.394 45.1243 117.983 45.1243ZM118.654 43.4389C118.996 43.4389 119.284 43.3461 119.52 43.1605C119.758 42.9716 119.94 42.7081 120.066 42.37C120.196 42.032 120.26 41.6359 120.26 41.1818C120.26 40.7277 120.197 40.3333 120.071 39.9986C119.945 39.6638 119.763 39.4053 119.525 39.223C119.286 39.0407 118.996 38.9496 118.654 38.9496C118.306 38.9496 118.013 39.044 117.775 39.233C117.536 39.4219 117.355 39.6837 117.233 40.0185C117.11 40.3532 117.049 40.741 117.049 41.1818C117.049 41.6259 117.11 42.0187 117.233 42.3601C117.359 42.6982 117.539 42.9633 117.775 43.1555C118.013 43.3445 118.306 43.4389 118.654 43.4389ZM0.884943 62V51.8182H4.90199C5.67093 51.8182 6.32718 51.9557 6.87074 52.2308C7.41761 52.5026 7.83357 52.8887 8.11861 53.3892C8.40696 53.8864 8.55114 54.4714 8.55114 55.1442C8.55114 55.8203 8.4053 56.402 8.11364 56.8892C7.82197 57.3731 7.39938 57.7443 6.84588 58.0028C6.29569 58.2614 5.6295 58.3906 4.8473 58.3906H2.15767V56.6605H4.49929C4.91027 56.6605 5.25166 56.6042 5.52344 56.4915C5.79522 56.3788 5.9974 56.2098 6.12997 55.9844C6.26586 55.759 6.33381 55.4789 6.33381 55.1442C6.33381 54.8061 6.26586 54.5211 6.12997 54.2891C5.9974 54.0571 5.79356 53.8814 5.51847 53.7621C5.24669 53.6394 4.90365 53.5781 4.48935 53.5781H3.03764V62H0.884943ZM6.38352 57.3665L8.91406 62H6.53764L4.06179 57.3665H6.38352ZM13.3599 62.1491C12.5877 62.1491 11.9198 61.9851 11.3564 61.657C10.7962 61.3255 10.3637 60.8648 10.0588 60.2749C9.75385 59.6816 9.60138 58.9938 9.60138 58.2116C9.60138 57.4228 9.75385 56.7334 10.0588 56.1435C10.3637 55.5502 10.7962 55.0895 11.3564 54.7614C11.9198 54.4299 12.5877 54.2642 13.3599 54.2642C14.1322 54.2642 14.7984 54.4299 15.3585 54.7614C15.9219 55.0895 16.3561 55.5502 16.661 56.1435C16.966 56.7334 17.1184 57.4228 17.1184 58.2116C17.1184 58.9938 16.966 59.6816 16.661 60.2749C16.3561 60.8648 15.9219 61.3255 15.3585 61.657C14.7984 61.9851 14.1322 62.1491 13.3599 62.1491ZM13.3699 60.5085C13.7212 60.5085 14.0145 60.4091 14.2498 60.2102C14.4851 60.008 14.6625 59.733 14.7818 59.3849C14.9044 59.0369 14.9657 58.6409 14.9657 58.1967C14.9657 57.7526 14.9044 57.3565 14.7818 57.0085C14.6625 56.6605 14.4851 56.3854 14.2498 56.1832C14.0145 55.9811 13.7212 55.88 13.3699 55.88C13.0152 55.88 12.7169 55.9811 12.475 56.1832C12.2363 56.3854 12.0557 56.6605 11.9331 57.0085C11.8137 57.3565 11.7541 57.7526 11.7541 58.1967C11.7541 58.6409 11.8137 59.0369 11.9331 59.3849C12.0557 59.733 12.2363 60.008 12.475 60.2102C12.7169 60.4091 13.0152 60.5085 13.3699 60.5085ZM18.5353 62V51.8182H20.6532V55.6463H20.7179C20.8107 55.4408 20.9449 55.232 21.1206 55.0199C21.2995 54.8045 21.5315 54.6255 21.8166 54.483C22.1049 54.3371 22.4629 54.2642 22.8904 54.2642C23.4473 54.2642 23.961 54.41 24.4316 54.7017C24.9023 54.9901 25.2785 55.4259 25.5602 56.0092C25.8419 56.5893 25.9828 57.3168 25.9828 58.1918C25.9828 59.0436 25.8452 59.7628 25.5701 60.3494C25.2984 60.9328 24.9271 61.3752 24.4565 61.6768C23.9892 61.9751 23.4655 62.1243 22.8855 62.1243C22.4745 62.1243 22.1248 62.0563 21.8365 61.9205C21.5514 61.7846 21.3178 61.6139 21.1355 61.4084C20.9532 61.1996 20.814 60.9891 20.7179 60.777H20.6234V62H18.5353ZM20.6085 58.1818C20.6085 58.6359 20.6715 59.032 20.7974 59.37C20.9234 59.7081 21.1056 59.9716 21.3443 60.1605C21.5829 60.3461 21.8729 60.4389 22.2143 60.4389C22.559 60.4389 22.8507 60.3445 23.0893 60.1555C23.3279 59.9633 23.5086 59.6982 23.6312 59.3601C23.7572 59.0187 23.8201 58.6259 23.8201 58.1818C23.8201 57.741 23.7588 57.3532 23.6362 57.0185C23.5136 56.6837 23.3329 56.4219 23.0943 56.233C22.8556 56.044 22.5623 55.9496 22.2143 55.9496C21.8696 55.9496 21.5779 56.0407 21.3393 56.223C21.104 56.4053 20.9234 56.6638 20.7974 56.9986C20.6715 57.3333 20.6085 57.7277 20.6085 58.1818ZM30.8462 62.1491C30.074 62.1491 29.4061 61.9851 28.8427 61.657C28.2826 61.3255 27.85 60.8648 27.5451 60.2749C27.2402 59.6816 27.0877 58.9938 27.0877 58.2116C27.0877 57.4228 27.2402 56.7334 27.5451 56.1435C27.85 55.5502 28.2826 55.0895 28.8427 54.7614C29.4061 54.4299 30.074 54.2642 30.8462 54.2642C31.6185 54.2642 32.2847 54.4299 32.8448 54.7614C33.4083 55.0895 33.8424 55.5502 34.1474 56.1435C34.4523 56.7334 34.6048 57.4228 34.6048 58.2116C34.6048 58.9938 34.4523 59.6816 34.1474 60.2749C33.8424 60.8648 33.4083 61.3255 32.8448 61.657C32.2847 61.9851 31.6185 62.1491 30.8462 62.1491ZM30.8562 60.5085C31.2075 60.5085 31.5008 60.4091 31.7362 60.2102C31.9715 60.008 32.1488 59.733 32.2681 59.3849C32.3907 59.0369 32.4521 58.6409 32.4521 58.1967C32.4521 57.7526 32.3907 57.3565 32.2681 57.0085C32.1488 56.6605 31.9715 56.3854 31.7362 56.1832C31.5008 55.9811 31.2075 55.88 30.8562 55.88C30.5015 55.88 30.2032 55.9811 29.9613 56.1832C29.7227 56.3854 29.542 56.6605 29.4194 57.0085C29.3001 57.3565 29.2404 57.7526 29.2404 58.1967C29.2404 58.6409 29.3001 59.0369 29.4194 59.3849C29.542 59.733 29.7227 60.008 29.9613 60.2102C30.2032 60.4091 30.5015 60.5085 30.8562 60.5085ZM40.0437 54.3636V55.9545H35.445V54.3636H40.0437ZM36.489 52.5341H38.6069V59.6534C38.6069 59.849 38.6367 60.0014 38.6964 60.1108C38.756 60.2169 38.8389 60.2914 38.945 60.3345C39.0543 60.3776 39.1803 60.3991 39.3228 60.3991C39.4222 60.3991 39.5217 60.3909 39.6211 60.3743C39.7205 60.3544 39.7968 60.3395 39.8498 60.3295L40.1829 61.9055C40.0768 61.9387 39.9277 61.9768 39.7354 62.0199C39.5432 62.0663 39.3095 62.0945 39.0344 62.1044C38.524 62.1243 38.0766 62.0563 37.6921 61.9006C37.311 61.7448 37.0143 61.5028 36.8022 61.1747C36.5901 60.8466 36.4857 60.4323 36.489 59.9318V52.5341ZM41.4233 62V54.3636H43.5412V62H41.4233ZM42.4872 53.3793C42.1723 53.3793 41.9022 53.2749 41.6768 53.0661C41.4548 52.8539 41.3438 52.6004 41.3438 52.3054C41.3438 52.0137 41.4548 51.7635 41.6768 51.5547C41.9022 51.3426 42.1723 51.2365 42.4872 51.2365C42.8021 51.2365 43.0705 51.3426 43.2926 51.5547C43.518 51.7635 43.6307 52.0137 43.6307 52.3054C43.6307 52.6004 43.518 52.8539 43.2926 53.0661C43.0705 53.2749 42.8021 53.3793 42.4872 53.3793ZM48.688 62.1491C47.9058 62.1491 47.233 61.9834 46.6696 61.652C46.1094 61.3172 45.6786 60.8532 45.377 60.2599C45.0787 59.6667 44.9295 58.9839 44.9295 58.2116C44.9295 57.4295 45.0803 56.7434 45.3819 56.1534C45.6868 55.5601 46.1194 55.0978 46.6795 54.7663C47.2396 54.4316 47.9058 54.2642 48.6781 54.2642C49.3443 54.2642 49.9276 54.3852 50.4281 54.6271C50.9286 54.8691 51.3246 55.2088 51.6163 55.6463C51.908 56.0838 52.0687 56.5975 52.0985 57.1875H50.1C50.0436 56.8063 49.8945 56.4998 49.6525 56.2678C49.4139 56.0324 49.1007 55.9148 48.7129 55.9148C48.3848 55.9148 48.0981 56.0043 47.8528 56.1832C47.6109 56.3589 47.4219 56.6158 47.286 56.9538C47.1502 57.2919 47.0822 57.7012 47.0822 58.1818C47.0822 58.669 47.1485 59.0833 47.2811 59.4247C47.417 59.7661 47.6075 60.0263 47.8528 60.2053C48.0981 60.3842 48.3848 60.4737 48.7129 60.4737C48.9548 60.4737 49.1719 60.424 49.3642 60.3246C49.5597 60.2251 49.7205 60.081 49.8464 59.892C49.9757 59.6998 50.0602 59.4695 50.1 59.201H52.0985C52.0654 59.7843 51.9063 60.2981 51.6213 60.7422C51.3395 61.183 50.9501 61.5277 50.4529 61.7763C49.9558 62.0249 49.3675 62.1491 48.688 62.1491ZM59.8082 56.5412L57.8693 56.6605C57.8362 56.4948 57.7649 56.3456 57.6555 56.2131C57.5462 56.0772 57.402 55.9695 57.223 55.8899C57.0473 55.8071 56.8369 55.7656 56.5916 55.7656C56.2635 55.7656 55.9867 55.8352 55.7614 55.9744C55.536 56.1103 55.4233 56.2926 55.4233 56.5213C55.4233 56.7036 55.4962 56.8577 55.642 56.9837C55.7879 57.1096 56.0381 57.2107 56.3928 57.2869L57.7749 57.5653C58.5173 57.7178 59.0708 57.9631 59.4354 58.3011C59.8 58.6392 59.9822 59.0833 59.9822 59.6335C59.9822 60.134 59.8348 60.5732 59.5398 60.951C59.2481 61.3288 58.8471 61.6238 58.3366 61.8359C57.8295 62.0447 57.2446 62.1491 56.5817 62.1491C55.5708 62.1491 54.7654 61.9387 54.1655 61.5178C53.5689 61.0935 53.2192 60.5168 53.1165 59.7876L55.1996 59.6783C55.2625 59.9865 55.415 60.2218 55.657 60.3842C55.8989 60.5433 56.2088 60.6229 56.5866 60.6229C56.9579 60.6229 57.2562 60.5516 57.4815 60.4091C57.7102 60.2633 57.8262 60.076 57.8295 59.8473C57.8262 59.6551 57.745 59.4976 57.5859 59.375C57.4268 59.2491 57.1816 59.1529 56.8501 59.0866L55.5277 58.8232C54.782 58.674 54.2268 58.4155 53.8622 58.0476C53.5009 57.6797 53.3203 57.2107 53.3203 56.6406C53.3203 56.1501 53.4529 55.7275 53.718 55.3729C53.9865 55.0182 54.3627 54.7448 54.8466 54.5526C55.3338 54.3603 55.9039 54.2642 56.5568 54.2642C57.5213 54.2642 58.2803 54.468 58.8338 54.8757C59.3906 55.2834 59.7154 55.8385 59.8082 56.5412Z" fill="#E0DED1"/>
</svg>
