<svg width="115" height="65" viewBox="0 0 115 65" fill="none" xmlns="http://www.w3.org/2000/svg">
<path d="M7.04474 11L3.77344 6.6598H3.03764V11H0.884943V0.818182H3.03764V4.88494H3.47017L6.85085 0.818182H9.53054L5.55824 5.54119L9.71449 11H7.04474ZM12.9348 11.1442C12.4476 11.1442 12.0134 11.0597 11.6323 10.8906C11.2511 10.7183 10.9495 10.4647 10.7275 10.13C10.5087 9.7919 10.3993 9.37098 10.3993 8.86719C10.3993 8.44295 10.4772 8.08665 10.633 7.7983C10.7888 7.50994 11.0009 7.27794 11.2694 7.10227C11.5378 6.92661 11.8427 6.79403 12.1841 6.70455C12.5288 6.61506 12.8901 6.55208 13.2679 6.51562C13.7121 6.46922 14.07 6.42614 14.3418 6.38636C14.6136 6.34328 14.8108 6.2803 14.9334 6.19744C15.056 6.11458 15.1174 5.99195 15.1174 5.82955V5.79972C15.1174 5.48485 15.0179 5.24124 14.8191 5.06889C14.6235 4.89654 14.3451 4.81037 13.9838 4.81037C13.6027 4.81037 13.2994 4.89489 13.074 5.06392C12.8487 5.22964 12.6995 5.43845 12.6266 5.69034L10.6678 5.53125C10.7672 5.06723 10.9628 4.66619 11.2544 4.32812C11.5461 3.98674 11.9223 3.7249 12.383 3.54261C12.847 3.35701 13.3839 3.2642 13.9938 3.2642C14.418 3.2642 14.824 3.31392 15.2118 3.41335C15.6029 3.51278 15.9493 3.6669 16.2509 3.87571C16.5558 4.08452 16.7961 4.35298 16.9718 4.68111C17.1474 5.00592 17.2353 5.39536 17.2353 5.84943V11H15.2267V9.94105H15.1671C15.0444 10.1797 14.8804 10.3902 14.6749 10.5724C14.4694 10.7514 14.2225 10.8923 13.9341 10.995C13.6458 11.0945 13.3127 11.1442 12.9348 11.1442ZM13.5414 9.68253C13.8529 9.68253 14.128 9.62121 14.3667 9.49858C14.6053 9.37263 14.7926 9.2036 14.9284 8.99148C15.0643 8.77936 15.1323 8.53906 15.1323 8.2706V7.46023C15.066 7.50331 14.9748 7.54309 14.8588 7.57955C14.7462 7.61269 14.6185 7.64418 14.476 7.67401C14.3335 7.70052 14.191 7.72538 14.0485 7.74858C13.906 7.76847 13.7767 7.78669 13.6607 7.80327C13.4121 7.83973 13.195 7.89773 13.0094 7.97727C12.8238 8.05682 12.6796 8.16454 12.5769 8.30043C12.4741 8.433 12.4228 8.59872 12.4228 8.79759C12.4228 9.08594 12.5272 9.30634 12.736 9.45881C12.9481 9.60795 13.2166 9.68253 13.5414 9.68253ZM22.5325 13.5952V0.818182H24.6454V13.5952H22.5325ZM22.5325 11.1491C21.9458 11.1491 21.4106 11.0547 20.9267 10.8658C20.4428 10.6735 20.0252 10.4034 19.6738 10.0554C19.3225 9.70407 19.0507 9.28812 18.8585 8.80753C18.6663 8.32363 18.5701 7.79167 18.5701 7.21165C18.5701 6.625 18.6663 6.09138 18.8585 5.6108C19.0507 5.12689 19.3225 4.71094 19.6738 4.36293C20.0252 4.0116 20.4428 3.74148 20.9267 3.55256C21.4106 3.36032 21.9458 3.2642 22.5325 3.2642H22.9252V11.1491H22.5325ZM22.5325 9.49858H22.7662V4.91477H22.5325C22.2475 4.91477 21.9939 4.97443 21.7718 5.09375C21.5498 5.21307 21.3625 5.37713 21.21 5.58594C21.0576 5.79143 20.9416 6.03338 20.862 6.31179C20.7858 6.5902 20.7477 6.89015 20.7477 7.21165C20.7477 7.63589 20.8173 8.02202 20.9565 8.37003C21.0957 8.71473 21.2995 8.98982 21.568 9.19531C21.8365 9.39749 22.158 9.49858 22.5325 9.49858ZM24.6454 11.1491H24.2527V3.2642H24.6454C25.2321 3.2642 25.7673 3.36032 26.2512 3.55256C26.7351 3.74148 27.1528 4.0116 27.5041 4.36293C27.8554 4.71094 28.1272 5.12689 28.3194 5.6108C28.5117 6.09138 28.6078 6.625 28.6078 7.21165C28.6078 7.79167 28.5117 8.32363 28.3194 8.80753C28.1272 9.28812 27.8554 9.70407 27.5041 10.0554C27.1528 10.4034 26.7351 10.6735 26.2512 10.8658C25.7673 11.0547 25.2321 11.1491 24.6454 11.1491ZM24.6454 9.49858C24.9305 9.49858 25.184 9.44058 25.4061 9.32457C25.6281 9.20526 25.8154 9.04119 25.9679 8.83239C26.1203 8.62358 26.2363 8.38163 26.3159 8.10653C26.3954 7.82812 26.4352 7.52983 26.4352 7.21165C26.4352 6.78409 26.3639 6.39796 26.2214 6.05327C26.0822 5.70526 25.88 5.4285 25.6149 5.22301C25.3497 5.01752 25.0266 4.91477 24.6454 4.91477H24.4118V9.49858H24.6454ZM33.4737 11.1491C32.6882 11.1491 32.0121 10.9901 31.4453 10.6719C30.8819 10.3504 30.4477 9.89631 30.1428 9.30966C29.8378 8.7197 29.6854 8.02202 29.6854 7.21662C29.6854 6.43111 29.8378 5.74171 30.1428 5.14844C30.4477 4.55516 30.8769 4.0928 31.4304 3.76136C31.9872 3.42992 32.6402 3.2642 33.3892 3.2642C33.893 3.2642 34.362 3.34541 34.7962 3.50781C35.2337 3.6669 35.6148 3.9072 35.9396 4.22869C36.2678 4.55019 36.523 4.95455 36.7053 5.44176C36.8875 5.92566 36.9787 6.49242 36.9787 7.14205V7.72372H30.5305V6.41122H34.9851C34.9851 6.1063 34.9188 5.83617 34.7862 5.60085C34.6536 5.36553 34.4697 5.18158 34.2344 5.04901C34.0024 4.91312 33.7322 4.84517 33.424 4.84517C33.1025 4.84517 32.8175 4.91974 32.5689 5.06889C32.3236 5.21473 32.1314 5.41193 31.9922 5.66051C31.853 5.90578 31.7817 6.17921 31.7784 6.48082V7.72869C31.7784 8.10653 31.848 8.433 31.9872 8.7081C32.1297 8.98319 32.3303 9.19531 32.5888 9.34446C32.8473 9.49361 33.1539 9.56818 33.5085 9.56818C33.7438 9.56818 33.9593 9.53504 34.1548 9.46875C34.3504 9.40246 34.5178 9.30303 34.657 9.17045C34.7962 9.03788 34.9022 8.87547 34.9751 8.68324L36.9339 8.8125C36.8345 9.28314 36.6307 9.69413 36.3224 10.0455C36.0175 10.3935 35.6231 10.6652 35.1392 10.8608C34.6586 11.053 34.1035 11.1491 33.4737 11.1491ZM37.7642 13.2372V9.3196H38.3509C38.5199 9.21354 38.6558 9.04451 38.7585 8.8125C38.8646 8.58049 38.9508 8.30705 39.017 7.99219C39.0866 7.67732 39.1397 7.33759 39.1761 6.97301C39.2159 6.60511 39.2507 6.2339 39.2805 5.85938L39.4794 3.36364H45.3359V9.3196H46.5192V13.2372H44.5007V11H39.8324V13.2372H37.7642ZM40.4588 9.3196H43.3374V4.99432H41.2791L41.1996 5.85938C41.1432 6.67472 41.062 7.36742 40.956 7.9375C40.8499 8.50426 40.6842 8.96496 40.4588 9.3196ZM47.7534 13.8636V3.36364H49.8414V4.64631H49.9359C50.0287 4.44081 50.1629 4.23201 50.3386 4.01989C50.5176 3.80445 50.7496 3.62547 51.0346 3.48295C51.323 3.33712 51.6809 3.2642 52.1085 3.2642C52.6653 3.2642 53.179 3.41004 53.6497 3.7017C54.1203 3.99006 54.4965 4.4259 54.7782 5.00923C55.06 5.58925 55.2008 6.31676 55.2008 7.19176C55.2008 8.04356 55.0633 8.76278 54.7882 9.34943C54.5164 9.93277 54.1452 10.3752 53.6745 10.6768C53.2072 10.9751 52.6835 11.1243 52.1035 11.1243C51.6925 11.1243 51.3429 11.0563 51.0545 10.9205C50.7695 10.7846 50.5358 10.6139 50.3535 10.4084C50.1712 10.1996 50.032 9.98911 49.9359 9.77699H49.8713V13.8636H47.7534ZM49.8265 7.18182C49.8265 7.63589 49.8895 8.03196 50.0154 8.37003C50.1414 8.7081 50.3237 8.97159 50.5623 9.16051C50.801 9.34612 51.091 9.43892 51.4324 9.43892C51.777 9.43892 52.0687 9.34446 52.3074 9.15554C52.546 8.9633 52.7266 8.69815 52.8493 8.36009C52.9752 8.0187 53.0382 7.62595 53.0382 7.18182C53.0382 6.741 52.9769 6.35322 52.8542 6.01847C52.7316 5.68371 52.551 5.42187 52.3123 5.23295C52.0737 5.04403 51.7804 4.94957 51.4324 4.94957C51.0877 4.94957 50.796 5.04072 50.5574 5.22301C50.322 5.4053 50.1414 5.66383 50.0154 5.99858C49.8895 6.33333 49.8265 6.72775 49.8265 7.18182ZM58.7903 11.1442C58.3031 11.1442 57.8689 11.0597 57.4877 10.8906C57.1066 10.7183 56.805 10.4647 56.5829 10.13C56.3642 9.7919 56.2548 9.37098 56.2548 8.86719C56.2548 8.44295 56.3327 8.08665 56.4885 7.7983C56.6442 7.50994 56.8564 7.27794 57.1248 7.10227C57.3933 6.92661 57.6982 6.79403 58.0396 6.70455C58.3843 6.61506 58.7456 6.55208 59.1234 6.51562C59.5675 6.46922 59.9255 6.42614 60.1973 6.38636C60.469 6.34328 60.6663 6.2803 60.7889 6.19744C60.9115 6.11458 60.9728 5.99195 60.9728 5.82955V5.79972C60.9728 5.48485 60.8734 5.24124 60.6745 5.06889C60.479 4.89654 60.2006 4.81037 59.8393 4.81037C59.4582 4.81037 59.1549 4.89489 58.9295 5.06392C58.7041 5.22964 58.555 5.43845 58.4821 5.69034L56.5233 5.53125C56.6227 5.06723 56.8182 4.66619 57.1099 4.32812C57.4016 3.98674 57.7778 3.7249 58.2385 3.54261C58.7025 3.35701 59.2394 3.2642 59.8493 3.2642C60.2735 3.2642 60.6795 3.31392 61.0673 3.41335C61.4584 3.51278 61.8047 3.6669 62.1064 3.87571C62.4113 4.08452 62.6516 4.35298 62.8272 4.68111C63.0029 5.00592 63.0907 5.39536 63.0907 5.84943V11H61.0822V9.94105H61.0225C60.8999 10.1797 60.7359 10.3902 60.5304 10.5724C60.3249 10.7514 60.0779 10.8923 59.7896 10.995C59.5012 11.0945 59.1681 11.1442 58.7903 11.1442ZM59.3968 9.68253C59.7084 9.68253 59.9835 9.62121 60.2221 9.49858C60.4608 9.37263 60.648 9.2036 60.7839 8.99148C60.9198 8.77936 60.9877 8.53906 60.9877 8.2706V7.46023C60.9215 7.50331 60.8303 7.54309 60.7143 7.57955C60.6016 7.61269 60.474 7.64418 60.3315 7.67401C60.189 7.70052 60.0465 7.72538 59.9039 7.74858C59.7614 7.76847 59.6322 7.78669 59.5162 7.80327C59.2676 7.83973 59.0505 7.89773 58.8649 7.97727C58.6793 8.05682 58.5351 8.16454 58.4324 8.30043C58.3296 8.433 58.2782 8.59872 58.2782 8.79759C58.2782 9.08594 58.3826 9.30634 58.5914 9.45881C58.8036 9.60795 59.072 9.68253 59.3968 9.68253ZM3.03764 17.8182V28H0.884943V17.8182H3.03764ZM10.0836 23.3366V25.0021H6.09641V23.3366H10.0836ZM6.79244 20.3636V28H4.769V20.3636H6.79244ZM11.411 20.3636V28H9.40252V20.3636H11.411ZM12.2873 22.0291V20.3636H19.2077V22.0291H16.7468V28H14.7283V22.0291H12.2873ZM23.6983 28.1491C22.9128 28.1491 22.2367 27.9901 21.6699 27.6719C21.1065 27.3504 20.6723 26.8963 20.3674 26.3097C20.0624 25.7197 19.91 25.022 19.91 24.2166C19.91 23.4311 20.0624 22.7417 20.3674 22.1484C20.6723 21.5552 21.1015 21.0928 21.655 20.7614C22.2118 20.4299 22.8648 20.2642 23.6138 20.2642C24.1176 20.2642 24.5866 20.3454 25.0208 20.5078C25.4583 20.6669 25.8394 20.9072 26.1642 21.2287C26.4924 21.5502 26.7476 21.9545 26.9299 22.4418C27.1122 22.9257 27.2033 23.4924 27.2033 24.142V24.7237H20.7551V23.4112H25.2097C25.2097 23.1063 25.1434 22.8362 25.0108 22.6009C24.8783 22.3655 24.6943 22.1816 24.459 22.049C24.227 21.9131 23.9569 21.8452 23.6486 21.8452C23.3271 21.8452 23.0421 21.9197 22.7935 22.0689C22.5482 22.2147 22.356 22.4119 22.2168 22.6605C22.0776 22.9058 22.0063 23.1792 22.003 23.4808V24.7287C22.003 25.1065 22.0726 25.433 22.2118 25.7081C22.3543 25.9832 22.5549 26.1953 22.8134 26.3445C23.0719 26.4936 23.3785 26.5682 23.7331 26.5682C23.9685 26.5682 24.1839 26.535 24.3794 26.4688C24.575 26.4025 24.7424 26.303 24.8816 26.1705C25.0208 26.0379 25.1268 25.8755 25.1998 25.6832L27.1586 25.8125C27.0591 26.2831 26.8553 26.6941 26.5471 27.0455C26.2421 27.3935 25.8477 27.6652 25.3638 27.8608C24.8832 28.053 24.3281 28.1491 23.6983 28.1491ZM28.138 28L28.128 26.3196H28.3816C28.5605 26.3196 28.7147 26.2765 28.8439 26.1903C28.9765 26.1009 29.0859 25.9567 29.1721 25.7578C29.2582 25.5589 29.3262 25.2955 29.3759 24.9673C29.4256 24.6359 29.4587 24.2282 29.4753 23.7443L29.5996 20.3636H35.4064V28H33.388V22.0291H31.5037L31.3844 24.3608C31.3546 25.0005 31.2767 25.5507 31.1507 26.0114C31.0281 26.4721 30.8574 26.8499 30.6387 27.1449C30.4199 27.4366 30.1564 27.652 29.8482 27.7912C29.54 27.9304 29.182 28 28.7743 28H28.138ZM40.5284 28.1491C39.7429 28.1491 39.0668 27.9901 38.5 27.6719C37.9366 27.3504 37.5024 26.8963 37.1974 26.3097C36.8925 25.7197 36.7401 25.022 36.7401 24.2166C36.7401 23.4311 36.8925 22.7417 37.1974 22.1484C37.5024 21.5552 37.9316 21.0928 38.4851 20.7614C39.0419 20.4299 39.6948 20.2642 40.4439 20.2642C40.9477 20.2642 41.4167 20.3454 41.8509 20.5078C42.2884 20.6669 42.6695 20.9072 42.9943 21.2287C43.3224 21.5502 43.5777 21.9545 43.7599 22.4418C43.9422 22.9257 44.0334 23.4924 44.0334 24.142V24.7237H37.5852V23.4112H42.0398C42.0398 23.1063 41.9735 22.8362 41.8409 22.6009C41.7083 22.3655 41.5244 22.1816 41.2891 22.049C41.0571 21.9131 40.7869 21.8452 40.4787 21.8452C40.1572 21.8452 39.8722 21.9197 39.6236 22.0689C39.3783 22.2147 39.1861 22.4119 39.0469 22.6605C38.9077 22.9058 38.8364 23.1792 38.8331 23.4808V24.7287C38.8331 25.1065 38.9027 25.433 39.0419 25.7081C39.1844 25.9832 39.3849 26.1953 39.6435 26.3445C39.902 26.4936 40.2086 26.5682 40.5632 26.5682C40.7985 26.5682 41.014 26.535 41.2095 26.4688C41.4051 26.4025 41.5724 26.303 41.7116 26.1705C41.8509 26.0379 41.9569 25.8755 42.0298 25.6832L43.9886 25.8125C43.8892 26.2831 43.6854 26.6941 43.3771 27.0455C43.0722 27.3935 42.6778 27.6652 42.1939 27.8608C41.7133 28.053 41.1581 28.1491 40.5284 28.1491ZM45.4155 28V20.3636H47.5334V23.3267H48.13L50.2081 20.3636H52.6939L49.9943 24.152L52.7237 28H50.2081L48.3239 25.2905H47.5334V28H45.4155ZM53.2209 22.0291V20.3636H60.1413V22.0291H57.6804V28H55.6619V22.0291H53.2209ZM62.7328 30.8636C62.4643 30.8636 62.2124 30.8421 61.9771 30.799C61.7451 30.7592 61.5529 30.7079 61.4004 30.6449L61.8777 29.0639C62.1262 29.1402 62.35 29.1816 62.5488 29.1882C62.751 29.1948 62.925 29.1484 63.0708 29.049C63.22 28.9496 63.341 28.7805 63.4338 28.5419L63.5581 28.2188L60.8187 20.3636H63.046L64.627 25.9716H64.7065L66.3024 20.3636H68.5446L65.5765 28.8253C65.434 29.2363 65.2401 29.5942 64.9949 29.8991C64.7529 30.2074 64.4463 30.4444 64.0751 30.6101C63.7039 30.7791 63.2565 30.8636 62.7328 30.8636ZM71.6009 28.1442C71.1136 28.1442 70.6795 28.0597 70.2983 27.8906C69.9171 27.7183 69.6155 27.4647 69.3935 27.13C69.1747 26.7919 69.0653 26.371 69.0653 25.8672C69.0653 25.4429 69.1432 25.0866 69.299 24.7983C69.4548 24.5099 69.6669 24.2779 69.9354 24.1023C70.2038 23.9266 70.5088 23.794 70.8501 23.7045C71.1948 23.6151 71.5561 23.5521 71.9339 23.5156C72.3781 23.4692 72.736 23.4261 73.0078 23.3864C73.2796 23.3433 73.4768 23.2803 73.5994 23.1974C73.7221 23.1146 73.7834 22.992 73.7834 22.8295V22.7997C73.7834 22.4848 73.6839 22.2412 73.4851 22.0689C73.2895 21.8965 73.0111 21.8104 72.6499 21.8104C72.2687 21.8104 71.9654 21.8949 71.7401 22.0639C71.5147 22.2296 71.3655 22.4384 71.2926 22.6903L69.3338 22.5312C69.4332 22.0672 69.6288 21.6662 69.9205 21.3281C70.2121 20.9867 70.5883 20.7249 71.049 20.5426C71.513 20.357 72.05 20.2642 72.6598 20.2642C73.084 20.2642 73.4901 20.3139 73.8778 20.4134C74.2689 20.5128 74.6153 20.6669 74.9169 20.8757C75.2218 21.0845 75.4621 21.353 75.6378 21.6811C75.8134 22.0059 75.9013 22.3954 75.9013 22.8494V28H73.8928V26.9411H73.8331C73.7105 27.1797 73.5464 27.3902 73.3409 27.5724C73.1354 27.7514 72.8885 27.8923 72.6001 27.995C72.3118 28.0945 71.9787 28.1442 71.6009 28.1442ZM72.2074 26.6825C72.5189 26.6825 72.794 26.6212 73.0327 26.4986C73.2713 26.3726 73.4586 26.2036 73.5945 25.9915C73.7304 25.7794 73.7983 25.5391 73.7983 25.2706V24.4602C73.732 24.5033 73.6409 24.5431 73.5249 24.5795C73.4122 24.6127 73.2846 24.6442 73.142 24.674C72.9995 24.7005 72.857 24.7254 72.7145 24.7486C72.572 24.7685 72.4427 24.7867 72.3267 24.8033C72.0781 24.8397 71.861 24.8977 71.6754 24.9773C71.4898 25.0568 71.3456 25.1645 71.2429 25.3004C71.1402 25.433 71.0888 25.5987 71.0888 25.7976C71.0888 26.0859 71.1932 26.3063 71.402 26.4588C71.6141 26.608 71.8826 26.6825 72.2074 26.6825ZM77.0969 28L77.087 26.3196H77.3406C77.5195 26.3196 77.6737 26.2765 77.8029 26.1903C77.9355 26.1009 78.0449 25.9567 78.131 25.7578C78.2172 25.5589 78.2852 25.2955 78.3349 24.9673C78.3846 24.6359 78.4177 24.2282 78.4343 23.7443L78.5586 20.3636H84.3654V28H82.3469V22.0291H80.4627L80.3434 24.3608C80.3136 25.0005 80.2357 25.5507 80.1097 26.0114C79.9871 26.4721 79.8164 26.8499 79.5977 27.1449C79.3789 27.4366 79.1154 27.652 78.8072 27.7912C78.4989 27.9304 78.141 28 77.7333 28H77.0969ZM87.3347 22.7102H89.6167C90.6275 22.7102 91.4164 22.9522 91.9831 23.4361C92.5499 23.9167 92.8333 24.5597 92.8333 25.3651C92.8333 25.8887 92.7057 26.3494 92.4505 26.7472C92.1953 27.1416 91.8274 27.4498 91.3468 27.6719C90.8662 27.8906 90.2895 28 89.6167 28H86.0073V20.3636H88.0307V26.3345H89.6167C89.9713 26.3345 90.263 26.245 90.4917 26.0661C90.7203 25.8871 90.8364 25.6584 90.8397 25.38C90.8364 25.085 90.7203 24.8447 90.4917 24.6591C90.263 24.4702 89.9713 24.3757 89.6167 24.3757H87.3347V22.7102ZM99.5524 23.3366V25.0021H95.5652V23.3366H99.5524ZM96.2612 20.3636V28H94.2377V20.3636H96.2612ZM100.88 20.3636V28H98.8713V20.3636H100.88ZM105.973 28.1491C105.201 28.1491 104.533 27.9851 103.97 27.657C103.41 27.3255 102.977 26.8648 102.672 26.2749C102.367 25.6816 102.215 24.9938 102.215 24.2116C102.215 23.4228 102.367 22.7334 102.672 22.1435C102.977 21.5502 103.41 21.0895 103.97 20.7614C104.533 20.4299 105.201 20.2642 105.973 20.2642C106.745 20.2642 107.412 20.4299 107.972 20.7614C108.535 21.0895 108.969 21.5502 109.274 22.1435C109.579 22.7334 109.732 23.4228 109.732 24.2116C109.732 24.9938 109.579 25.6816 109.274 26.2749C108.969 26.8648 108.535 27.3255 107.972 27.657C107.412 27.9851 106.745 28.1491 105.973 28.1491ZM105.983 26.5085C106.334 26.5085 106.628 26.4091 106.863 26.2102C107.098 26.008 107.276 25.733 107.395 25.3849C107.518 25.0369 107.579 24.6409 107.579 24.1967C107.579 23.7526 107.518 23.3565 107.395 23.0085C107.276 22.6605 107.098 22.3854 106.863 22.1832C106.628 21.9811 106.334 21.88 105.983 21.88C105.628 21.88 105.33 21.9811 105.088 22.1832C104.85 22.3854 104.669 22.6605 104.546 23.0085C104.427 23.3565 104.367 23.7526 104.367 24.1967C104.367 24.6409 104.427 25.0369 104.546 25.3849C104.669 25.733 104.85 26.008 105.088 26.2102C105.33 26.4091 105.628 26.5085 105.983 26.5085ZM111.109 28V20.3636H113.227V28H111.109ZM110.656 19.3196C110.371 19.3196 110.126 19.2202 109.921 19.0213C109.715 18.8191 109.612 18.5805 109.612 18.3054C109.612 18.0237 109.715 17.785 109.921 17.5895C110.126 17.3939 110.371 17.2962 110.656 17.2962C110.945 17.2962 111.188 17.3939 111.387 17.5895C111.589 17.785 111.691 18.0237 111.691 18.3054C111.691 18.5805 111.589 18.8191 111.387 19.0213C111.188 19.2202 110.945 19.3196 110.656 19.3196ZM113.699 19.3196C113.414 19.3196 113.169 19.2202 112.963 19.0213C112.758 18.8191 112.655 18.5805 112.655 18.3054C112.655 18.0237 112.758 17.785 112.963 17.5895C113.169 17.3939 113.414 17.2962 113.699 17.2962C113.987 17.2962 114.231 17.3939 114.43 17.5895C114.632 17.785 114.733 18.0237 114.733 18.3054C114.733 18.5805 114.632 18.8191 114.43 19.0213C114.231 19.2202 113.987 19.3196 113.699 19.3196ZM5.35938 42.6584L7.42756 37.3636H9.03835L6.06037 45H4.65341L1.74503 37.3636H3.35085L5.35938 42.6584ZM2.86861 37.3636V45H0.84517V37.3636H2.86861ZM7.95455 45V37.3636H9.95312V45H7.95455ZM15.0714 45.1491C14.2859 45.1491 13.6097 44.9901 13.043 44.6719C12.4795 44.3504 12.0453 43.8963 11.7404 43.3097C11.4355 42.7197 11.283 42.022 11.283 41.2166C11.283 40.4311 11.4355 39.7417 11.7404 39.1484C12.0453 38.5552 12.4746 38.0928 13.0281 37.7614C13.5849 37.4299 14.2378 37.2642 14.9869 37.2642C15.4906 37.2642 15.9596 37.3454 16.3938 37.5078C16.8313 37.6669 17.2125 37.9072 17.5373 38.2287C17.8654 38.5502 18.1206 38.9545 18.3029 39.4418C18.4852 39.9257 18.5763 40.4924 18.5763 41.142V41.7237H12.1282V40.4112H16.5827C16.5827 40.1063 16.5165 39.8362 16.3839 39.6009C16.2513 39.3655 16.0674 39.1816 15.832 39.049C15.6 38.9131 15.3299 38.8452 15.0217 38.8452C14.7002 38.8452 14.4151 38.9197 14.1665 39.0689C13.9213 39.2147 13.729 39.4119 13.5898 39.6605C13.4506 39.9058 13.3794 40.1792 13.3761 40.4808V41.7287C13.3761 42.1065 13.4457 42.433 13.5849 42.7081C13.7274 42.9832 13.9279 43.1953 14.1864 43.3445C14.445 43.4936 14.7515 43.5682 15.1062 43.5682C15.3415 43.5682 15.5569 43.535 15.7525 43.4688C15.948 43.4025 16.1154 43.303 16.2546 43.1705C16.3938 43.0379 16.4999 42.8755 16.5728 42.6832L18.5316 42.8125C18.4322 43.2831 18.2283 43.6941 17.9201 44.0455C17.6152 44.3935 17.2208 44.6652 16.7369 44.8608C16.2563 45.053 15.7011 45.1491 15.0714 45.1491ZM25.2731 40.3366V42.0021H21.2859V40.3366H25.2731ZM21.9819 37.3636V45H19.9585V37.3636H21.9819ZM26.6005 37.3636V45H24.592V37.3636H26.6005ZM30.0135 37.3636L31.4155 40.0334L32.8523 37.3636H35.0249L32.8125 41.1818L35.0845 45H32.9219L31.4155 42.3601L29.9339 45H27.7464L30.0135 41.1818L27.826 37.3636H30.0135ZM38.4192 45.1442C37.932 45.1442 37.4978 45.0597 37.1167 44.8906C36.7355 44.7183 36.4339 44.4647 36.2118 44.13C35.9931 43.7919 35.8837 43.371 35.8837 42.8672C35.8837 42.4429 35.9616 42.0866 36.1174 41.7983C36.2731 41.5099 36.4853 41.2779 36.7537 41.1023C37.0222 40.9266 37.3271 40.794 37.6685 40.7045C38.0132 40.6151 38.3745 40.5521 38.7523 40.5156C39.1964 40.4692 39.5544 40.4261 39.8262 40.3864C40.098 40.3433 40.2952 40.2803 40.4178 40.1974C40.5404 40.1146 40.6017 39.992 40.6017 39.8295V39.7997C40.6017 39.4848 40.5023 39.2412 40.3034 39.0689C40.1079 38.8965 39.8295 38.8104 39.4682 38.8104C39.0871 38.8104 38.7838 38.8949 38.5584 39.0639C38.333 39.2296 38.1839 39.4384 38.111 39.6903L36.1522 39.5312C36.2516 39.0672 36.4471 38.6662 36.7388 38.3281C37.0305 37.9867 37.4067 37.7249 37.8674 37.5426C38.3314 37.357 38.8683 37.2642 39.4782 37.2642C39.9024 37.2642 40.3084 37.3139 40.6962 37.4134C41.0873 37.5128 41.4337 37.6669 41.7353 37.8757C42.0402 38.0845 42.2805 38.353 42.4561 38.6811C42.6318 39.0059 42.7196 39.3954 42.7196 39.8494V45H40.7111V43.9411H40.6515C40.5288 44.1797 40.3648 44.3902 40.1593 44.5724C39.9538 44.7514 39.7069 44.8923 39.4185 44.995C39.1301 45.0945 38.7971 45.1442 38.4192 45.1442ZM39.0257 43.6825C39.3373 43.6825 39.6124 43.6212 39.851 43.4986C40.0897 43.3726 40.2769 43.2036 40.4128 42.9915C40.5487 42.7794 40.6167 42.5391 40.6167 42.2706V41.4602C40.5504 41.5033 40.4592 41.5431 40.3432 41.5795C40.2305 41.6127 40.1029 41.6442 39.9604 41.674C39.8179 41.7005 39.6754 41.7254 39.5328 41.7486C39.3903 41.7685 39.2611 41.7867 39.1451 41.8033C38.8965 41.8397 38.6794 41.8977 38.4938 41.9773C38.3082 42.0568 38.164 42.1645 38.0613 42.3004C37.9585 42.433 37.9071 42.5987 37.9071 42.7976C37.9071 43.0859 38.0115 43.3063 38.2203 43.4588C38.4325 43.608 38.7009 43.6825 39.0257 43.6825ZM43.5959 39.0291V37.3636H50.5163V39.0291H48.0554V45H46.0369V39.0291H43.5959ZM51.8002 47.8636V37.3636H53.8883V38.6463H53.9828C54.0756 38.4408 54.2098 38.232 54.3855 38.0199C54.5645 37.8045 54.7965 37.6255 55.0815 37.483C55.3699 37.3371 55.7278 37.2642 56.1554 37.2642C56.7122 37.2642 57.2259 37.41 57.6966 37.7017C58.1672 37.9901 58.5434 38.4259 58.8251 39.0092C59.1068 39.5893 59.2477 40.3168 59.2477 41.1918C59.2477 42.0436 59.1101 42.7628 58.835 43.3494C58.5633 43.9328 58.1921 44.3752 57.7214 44.6768C57.2541 44.9751 56.7304 45.1243 56.1504 45.1243C55.7394 45.1243 55.3897 45.0563 55.1014 44.9205C54.8163 44.7846 54.5827 44.6139 54.4004 44.4084C54.2181 44.1996 54.0789 43.9891 53.9828 43.777H53.9181V47.8636H51.8002ZM53.8734 41.1818C53.8734 41.6359 53.9364 42.032 54.0623 42.37C54.1883 42.7081 54.3706 42.9716 54.6092 43.1605C54.8478 43.3461 55.1378 43.4389 55.4792 43.4389C55.8239 43.4389 56.1156 43.3445 56.3542 43.1555C56.5929 42.9633 56.7735 42.6982 56.8961 42.3601C57.0221 42.0187 57.085 41.6259 57.085 41.1818C57.085 40.741 57.0237 40.3532 56.9011 40.0185C56.7785 39.6837 56.5978 39.4219 56.3592 39.233C56.1206 39.044 55.8272 38.9496 55.4792 38.9496C55.1345 38.9496 54.8429 39.0407 54.6042 39.223C54.3689 39.4053 54.1883 39.6638 54.0623 39.9986C53.9364 40.3333 53.8734 40.7277 53.8734 41.1818ZM64.1099 45.1491C63.3377 45.1491 62.6698 44.9851 62.1064 44.657C61.5462 44.3255 61.1137 43.8648 60.8088 43.2749C60.5038 42.6816 60.3514 41.9938 60.3514 41.2116C60.3514 40.4228 60.5038 39.7334 60.8088 39.1435C61.1137 38.5502 61.5462 38.0895 62.1064 37.7614C62.6698 37.4299 63.3377 37.2642 64.1099 37.2642C64.8822 37.2642 65.5484 37.4299 66.1085 37.7614C66.6719 38.0895 67.1061 38.5502 67.411 39.1435C67.716 39.7334 67.8684 40.4228 67.8684 41.2116C67.8684 41.9938 67.716 42.6816 67.411 43.2749C67.1061 43.8648 66.6719 44.3255 66.1085 44.657C65.5484 44.9851 64.8822 45.1491 64.1099 45.1491ZM64.1199 43.5085C64.4712 43.5085 64.7645 43.4091 64.9998 43.2102C65.2351 43.008 65.4125 42.733 65.5318 42.3849C65.6544 42.0369 65.7157 41.6409 65.7157 41.1967C65.7157 40.7526 65.6544 40.3565 65.5318 40.0085C65.4125 39.6605 65.2351 39.3854 64.9998 39.1832C64.7645 38.9811 64.4712 38.88 64.1199 38.88C63.7652 38.88 63.4669 38.9811 63.225 39.1832C62.9863 39.3854 62.8057 39.6605 62.6831 40.0085C62.5637 40.3565 62.5041 40.7526 62.5041 41.1967C62.5041 41.6409 62.5637 42.0369 62.6831 42.3849C62.8057 42.733 62.9863 43.008 63.225 43.2102C63.4669 43.4091 63.7652 43.5085 64.1199 43.5085ZM74.5602 40.3366V42.0021H70.573V40.3366H74.5602ZM71.269 37.3636V45H69.2456V37.3636H71.269ZM75.8876 37.3636V45H73.8791V37.3636H75.8876ZM77.5307 45V37.3636H79.6486V45H77.5307ZM78.5946 36.3793C78.2798 36.3793 78.0096 36.2749 77.7843 36.0661C77.5622 35.8539 77.4512 35.6004 77.4512 35.3054C77.4512 35.0137 77.5622 34.7635 77.7843 34.5547C78.0096 34.3426 78.2798 34.2365 78.5946 34.2365C78.9095 34.2365 79.178 34.3426 79.4 34.5547C79.6254 34.7635 79.7381 35.0137 79.7381 35.3054C79.7381 35.6004 79.6254 35.8539 79.4 36.0661C79.178 36.2749 78.9095 36.3793 78.5946 36.3793ZM81.3452 45V37.3636H83.4631V40.3267H84.0597L86.1378 37.3636H88.6236L85.924 41.152L88.6534 45H86.1378L84.2536 42.2905H83.4631V45H81.3452ZM91.5717 42.206L94.321 37.3636H96.4091V45H94.3906V40.1428L91.6513 45H89.5483V37.3636H91.5717V42.206ZM0.447443 56.0291V54.3636H7.3679V56.0291H4.90696V62H2.88849V56.0291H0.447443ZM10.5559 62.1442C10.0687 62.1442 9.63453 62.0597 9.25337 61.8906C8.87222 61.7183 8.57061 61.4647 8.34854 61.13C8.12979 60.7919 8.02042 60.371 8.02042 59.8672C8.02042 59.4429 8.09831 59.0866 8.25408 58.7983C8.40986 58.5099 8.62198 58.2779 8.89045 58.1023C9.15891 57.9266 9.46384 57.794 9.80522 57.7045C10.1499 57.6151 10.5112 57.5521 10.889 57.5156C11.3332 57.4692 11.6911 57.4261 11.9629 57.3864C12.2347 57.3433 12.4319 57.2803 12.5545 57.1974C12.6771 57.1146 12.7385 56.992 12.7385 56.8295V56.7997C12.7385 56.4848 12.639 56.2412 12.4402 56.0689C12.2446 55.8965 11.9662 55.8104 11.6049 55.8104C11.2238 55.8104 10.9205 55.8949 10.6951 56.0639C10.4698 56.2296 10.3206 56.4384 10.2477 56.6903L8.28888 56.5312C8.38832 56.0672 8.58387 55.6662 8.87553 55.3281C9.1672 54.9867 9.54338 54.7249 10.0041 54.5426C10.4681 54.357 11.005 54.2642 11.6149 54.2642C12.0391 54.2642 12.4451 54.3139 12.8329 54.4134C13.224 54.5128 13.5704 54.6669 13.872 54.8757C14.1769 55.0845 14.4172 55.353 14.5929 55.6811C14.7685 56.0059 14.8564 56.3954 14.8564 56.8494V62H12.8478V60.9411H12.7882C12.6655 61.1797 12.5015 61.3902 12.296 61.5724C12.0905 61.7514 11.8436 61.8923 11.5552 61.995C11.2669 62.0945 10.9338 62.1442 10.5559 62.1442ZM11.1625 60.6825C11.474 60.6825 11.7491 60.6212 11.9877 60.4986C12.2264 60.3726 12.4136 60.2036 12.5495 59.9915C12.6854 59.7794 12.7534 59.5391 12.7534 59.2706V58.4602C12.6871 58.5033 12.5959 58.5431 12.4799 58.5795C12.3672 58.6127 12.2396 58.6442 12.0971 58.674C11.9546 58.7005 11.8121 58.7254 11.6696 58.7486C11.527 58.7685 11.3978 58.7867 11.2818 58.8033C11.0332 58.8397 10.8161 58.8977 10.6305 58.9773C10.4449 59.0568 10.3007 59.1645 10.198 59.3004C10.0952 59.433 10.0439 59.5987 10.0439 59.7976C10.0439 60.0859 10.1483 60.3063 10.3571 60.4588C10.5692 60.608 10.8377 60.6825 11.1625 60.6825ZM19.7397 64.8636V54.3636H21.8278V55.6463H21.9222C22.015 55.4408 22.1493 55.232 22.3249 55.0199C22.5039 54.8045 22.7359 54.6255 23.021 54.483C23.3093 54.3371 23.6673 54.2642 24.0948 54.2642C24.6516 54.2642 25.1654 54.41 25.636 54.7017C26.1067 54.9901 26.4828 55.4259 26.7646 56.0092C27.0463 56.5893 27.1871 57.3168 27.1871 58.1918C27.1871 59.0436 27.0496 59.7628 26.7745 60.3494C26.5027 60.9328 26.1315 61.3752 25.6609 61.6768C25.1935 61.9751 24.6699 62.1243 24.0898 62.1243C23.6789 62.1243 23.3292 62.0563 23.0408 61.9205C22.7558 61.7846 22.5221 61.6139 22.3398 61.4084C22.1576 61.1996 22.0183 60.9891 21.9222 60.777H21.8576V64.8636H19.7397ZM21.8129 58.1818C21.8129 58.6359 21.8758 59.032 22.0018 59.37C22.1277 59.7081 22.31 59.9716 22.5487 60.1605C22.7873 60.3461 23.0773 60.4389 23.4187 60.4389C23.7634 60.4389 24.055 60.3445 24.2937 60.1555C24.5323 59.9633 24.7129 59.6982 24.8356 59.3601C24.9615 59.0187 25.0245 58.6259 25.0245 58.1818C25.0245 57.741 24.9632 57.3532 24.8406 57.0185C24.7179 56.6837 24.5373 56.4219 24.2987 56.233C24.06 56.044 23.7667 55.9496 23.4187 55.9496C23.074 55.9496 22.7823 56.0407 22.5437 56.223C22.3084 56.4053 22.1277 56.6638 22.0018 56.9986C21.8758 57.3333 21.8129 57.7277 21.8129 58.1818ZM32.0494 62.1491C31.2771 62.1491 30.6093 61.9851 30.0458 61.657C29.4857 61.3255 29.0531 60.8648 28.7482 60.2749C28.4433 59.6816 28.2908 58.9938 28.2908 58.2116C28.2908 57.4228 28.4433 56.7334 28.7482 56.1435C29.0531 55.5502 29.4857 55.0895 30.0458 54.7614C30.6093 54.4299 31.2771 54.2642 32.0494 54.2642C32.8216 54.2642 33.4878 54.4299 34.0479 54.7614C34.6114 55.0895 35.0456 55.5502 35.3505 56.1435C35.6554 56.7334 35.8079 57.4228 35.8079 58.2116C35.8079 58.9938 35.6554 59.6816 35.3505 60.2749C35.0456 60.8648 34.6114 61.3255 34.0479 61.657C33.4878 61.9851 32.8216 62.1491 32.0494 62.1491ZM32.0593 60.5085C32.4106 60.5085 32.704 60.4091 32.9393 60.2102C33.1746 60.008 33.3519 59.733 33.4712 59.3849C33.5939 59.0369 33.6552 58.6409 33.6552 58.1967C33.6552 57.7526 33.5939 57.3565 33.4712 57.0085C33.3519 56.6605 33.1746 56.3854 32.9393 56.1832C32.704 55.9811 32.4106 55.88 32.0593 55.88C31.7047 55.88 31.4064 55.9811 31.1644 56.1832C30.9258 56.3854 30.7451 56.6605 30.6225 57.0085C30.5032 57.3565 30.4435 57.7526 30.4435 58.1967C30.4435 58.6409 30.5032 59.0369 30.6225 59.3849C30.7451 59.733 30.9258 60.008 31.1644 60.2102C31.4064 60.4091 31.7047 60.5085 32.0593 60.5085ZM43.5337 51.5597L44.18 52.9418C43.9646 53.1207 43.726 53.2533 43.4641 53.3395C43.2023 53.4223 42.8891 53.477 42.5245 53.5036C42.1632 53.5301 41.7224 53.5483 41.2021 53.5582C40.6121 53.5649 40.1315 53.6593 39.7603 53.8416C39.3891 54.0239 39.1074 54.3106 38.9151 54.7017C38.7229 55.0895 38.5969 55.5966 38.5373 56.223H38.6119C38.8406 55.7557 39.1621 55.3944 39.5763 55.1392C39.994 54.884 40.5094 54.7564 41.1225 54.7564C41.7721 54.7564 42.3406 54.8989 42.8278 55.1839C43.3183 55.469 43.6995 55.8783 43.9712 56.4119C44.243 56.9455 44.3789 57.5852 44.3789 58.331C44.3789 59.1065 44.2264 59.781 43.9215 60.3544C43.6199 60.9245 43.1907 61.367 42.6339 61.6818C42.0771 61.9934 41.4142 62.1491 40.6452 62.1491C39.873 62.1491 39.2068 61.9867 38.6467 61.6619C38.0898 61.3371 37.659 60.8582 37.354 60.2251C37.0524 59.5921 36.9016 58.8132 36.9016 57.8885V57.2621C36.9016 55.4226 37.2596 54.0587 37.9755 53.1705C38.6914 52.2822 39.7437 51.8314 41.1325 51.8182C41.5103 51.8116 41.8517 51.8099 42.1566 51.8132C42.4615 51.8165 42.7283 51.8016 42.957 51.7685C43.189 51.7353 43.3813 51.6657 43.5337 51.5597ZM40.6552 60.5085C40.98 60.5085 41.2584 60.424 41.4904 60.255C41.7257 60.0859 41.9064 59.844 42.0323 59.5291C42.1616 59.2143 42.2262 58.8381 42.2262 58.4006C42.2262 57.9664 42.1616 57.5985 42.0323 57.2969C41.9064 56.992 41.7257 56.7599 41.4904 56.6009C41.2551 56.4418 40.9734 56.3622 40.6452 56.3622C40.4 56.3622 40.1796 56.407 39.984 56.4964C39.7885 56.5859 39.6211 56.7185 39.4819 56.8942C39.346 57.0665 39.2399 57.2803 39.1637 57.5355C39.0908 57.7874 39.0543 58.0758 39.0543 58.4006C39.0543 59.0535 39.1952 59.5689 39.4769 59.9467C39.762 60.3213 40.1547 60.5085 40.6552 60.5085ZM49.2349 62.1491C48.4627 62.1491 47.7948 61.9851 47.2314 61.657C46.6712 61.3255 46.2387 60.8648 45.9338 60.2749C45.6288 59.6816 45.4764 58.9938 45.4764 58.2116C45.4764 57.4228 45.6288 56.7334 45.9338 56.1435C46.2387 55.5502 46.6712 55.0895 47.2314 54.7614C47.7948 54.4299 48.4627 54.2642 49.2349 54.2642C50.0072 54.2642 50.6734 54.4299 51.2335 54.7614C51.7969 55.0895 52.2311 55.5502 52.536 56.1435C52.841 56.7334 52.9934 57.4228 52.9934 58.2116C52.9934 58.9938 52.841 59.6816 52.536 60.2749C52.2311 60.8648 51.7969 61.3255 51.2335 61.657C50.6734 61.9851 50.0072 62.1491 49.2349 62.1491ZM49.2449 60.5085C49.5962 60.5085 49.8895 60.4091 50.1248 60.2102C50.3601 60.008 50.5375 59.733 50.6568 59.3849C50.7794 59.0369 50.8407 58.6409 50.8407 58.1967C50.8407 57.7526 50.7794 57.3565 50.6568 57.0085C50.5375 56.6605 50.3601 56.3854 50.1248 56.1832C49.8895 55.9811 49.5962 55.88 49.2449 55.88C48.8902 55.88 48.5919 55.9811 48.35 56.1832C48.1113 56.3854 47.9307 56.6605 47.8081 57.0085C47.6887 57.3565 47.6291 57.7526 47.6291 58.1967C47.6291 58.6409 47.6887 59.0369 47.8081 59.3849C47.9307 59.733 48.1113 60.008 48.35 60.2102C48.5919 60.4091 48.8902 60.5085 49.2449 60.5085ZM53.631 56.0291V54.3636H60.5515V56.0291H58.0906V62H56.0721V56.0291H53.631ZM63.8588 59.206L66.6081 54.3636H68.6962V62H66.6777V57.1428L63.9384 62H61.8354V54.3636H63.8588V59.206ZM70.394 62V54.3636H72.5119V57.3267H73.1085L75.1866 54.3636H77.6724L74.9728 58.152L77.7022 62H75.1866L73.3024 59.2905H72.5119V62H70.394ZM80.6206 59.206L83.3699 54.3636H85.4579V62H83.4395V57.1428L80.7001 62H78.5971V54.3636H80.6206V59.206Z" fill="#E0DED1"/>
</svg>
